<svg width="64" height="64" viewBox="0 0 64 64" fill="none" xmlns="http://www.w3.org/2000/svg">
<rect width="64" height="64" fill="#FF5F05"/>
<path d="M25.9312 23.0703C25.9312 22.8359 25.8948 22.6276 25.8219 22.4453C25.7542 22.263 25.6318 22.0964 25.4547 21.9453C25.2776 21.7943 25.0276 21.6484 24.7047 21.5078C24.387 21.362 23.9807 21.2135 23.4859 21.0625C22.9443 20.8958 22.4443 20.7109 21.9859 20.5078C21.5328 20.2995 21.137 20.0599 20.7984 19.7891C20.4599 19.513 20.1969 19.1979 20.0094 18.8438C19.8219 18.4844 19.7281 18.0703 19.7281 17.6016C19.7281 17.138 19.8245 16.7161 20.0172 16.3359C20.2151 15.9557 20.4937 15.6276 20.8531 15.3516C21.2177 15.0703 21.6474 14.8542 22.1422 14.7031C22.637 14.5469 23.1839 14.4688 23.7828 14.4688C24.6266 14.4688 25.3531 14.625 25.9625 14.9375C26.5771 15.25 27.0484 15.6693 27.3766 16.1953C27.7099 16.7214 27.8766 17.3021 27.8766 17.9375H25.9312C25.9312 17.5625 25.8505 17.2318 25.6891 16.9453C25.5328 16.6536 25.2932 16.4245 24.9703 16.2578C24.6526 16.0911 24.249 16.0078 23.7594 16.0078C23.2958 16.0078 22.9104 16.0781 22.6031 16.2188C22.2958 16.3594 22.0667 16.5495 21.9156 16.7891C21.7646 17.0286 21.6891 17.2995 21.6891 17.6016C21.6891 17.8151 21.7385 18.0104 21.8375 18.1875C21.9365 18.3594 22.0875 18.5208 22.2906 18.6719C22.4937 18.8177 22.749 18.9557 23.0562 19.0859C23.3635 19.2161 23.7255 19.3411 24.1422 19.4609C24.7724 19.6484 25.3219 19.8568 25.7906 20.0859C26.2594 20.3099 26.65 20.5651 26.9625 20.8516C27.275 21.138 27.5094 21.4635 27.6656 21.8281C27.8219 22.1875 27.9 22.5964 27.9 23.0547C27.9 23.5339 27.8036 23.9661 27.6109 24.3516C27.4182 24.7318 27.1422 25.0573 26.7828 25.3281C26.4286 25.5938 26.0016 25.7995 25.5016 25.9453C25.0068 26.0859 24.4547 26.1562 23.8453 26.1562C23.2984 26.1562 22.7594 26.0833 22.2281 25.9375C21.7021 25.7917 21.2229 25.5703 20.7906 25.2734C20.3583 24.9714 20.0146 24.5964 19.7594 24.1484C19.5042 23.6953 19.3766 23.1667 19.3766 22.5625H21.3375C21.3375 22.9323 21.4 23.2474 21.525 23.5078C21.6552 23.7682 21.8349 23.9818 22.0641 24.1484C22.2932 24.3099 22.5589 24.4297 22.8609 24.5078C23.1682 24.5859 23.4964 24.625 23.8453 24.625C24.3036 24.625 24.6865 24.5599 24.9937 24.4297C25.3062 24.2995 25.5406 24.1172 25.6969 23.8828C25.8531 23.6484 25.9312 23.3776 25.9312 23.0703ZM34.5328 24.0078V17.5469H36.4234V26H34.6422L34.5328 24.0078ZM34.7984 22.25L35.4312 22.2344C35.4312 22.8021 35.3687 23.3255 35.2437 23.8047C35.1187 24.2786 34.926 24.6927 34.6656 25.0469C34.4052 25.3958 34.0719 25.6693 33.6656 25.8672C33.2594 26.0599 32.7724 26.1562 32.2047 26.1562C31.7932 26.1562 31.4156 26.0964 31.0719 25.9766C30.7281 25.8568 30.4312 25.6719 30.1812 25.4219C29.9365 25.1719 29.7464 24.8464 29.6109 24.4453C29.4755 24.0443 29.4078 23.5651 29.4078 23.0078V17.5469H31.2906V23.0234C31.2906 23.3307 31.3271 23.5885 31.4 23.7969C31.4729 24 31.5719 24.1641 31.6969 24.2891C31.8219 24.4141 31.9677 24.5026 32.1344 24.5547C32.301 24.6068 32.4781 24.6328 32.6656 24.6328C33.2021 24.6328 33.624 24.5286 33.9312 24.3203C34.2437 24.1068 34.4651 23.8203 34.5953 23.4609C34.7307 23.1016 34.7984 22.6979 34.7984 22.25ZM43.1187 24.3047V20.2734C43.1187 19.9714 43.0641 19.7109 42.9547 19.4922C42.8453 19.2734 42.6786 19.1042 42.4547 18.9844C42.2359 18.8646 41.9599 18.8047 41.6266 18.8047C41.3193 18.8047 41.0536 18.8568 40.8297 18.9609C40.6057 19.0651 40.4312 19.2057 40.3062 19.3828C40.1812 19.5599 40.1187 19.7604 40.1187 19.9844H38.2437C38.2437 19.651 38.3245 19.3281 38.4859 19.0156C38.6474 18.7031 38.8818 18.4245 39.1891 18.1797C39.4964 17.9349 39.8635 17.7422 40.2906 17.6016C40.7177 17.4609 41.1969 17.3906 41.7281 17.3906C42.3635 17.3906 42.926 17.4974 43.4156 17.7109C43.9104 17.9245 44.2984 18.2474 44.5797 18.6797C44.8661 19.1068 45.0094 19.6432 45.0094 20.2891V24.0469C45.0094 24.4323 45.0354 24.7786 45.0875 25.0859C45.1448 25.388 45.2255 25.651 45.3297 25.875V26H43.4C43.3115 25.7969 43.2411 25.5391 43.1891 25.2266C43.1422 24.9089 43.1187 24.6016 43.1187 24.3047ZM43.3922 20.8594L43.4078 22.0234H42.0562C41.7073 22.0234 41.4 22.0573 41.1344 22.125C40.8687 22.1875 40.6474 22.2812 40.4703 22.4062C40.2932 22.5312 40.1604 22.6823 40.0719 22.8594C39.9833 23.0365 39.9391 23.237 39.9391 23.4609C39.9391 23.6849 39.9911 23.8906 40.0953 24.0781C40.1995 24.2604 40.3505 24.4036 40.5484 24.5078C40.7516 24.612 40.9964 24.6641 41.2828 24.6641C41.6682 24.6641 42.0042 24.5859 42.2906 24.4297C42.5823 24.2682 42.8115 24.0729 42.9781 23.8438C43.1448 23.6094 43.2333 23.388 43.2437 23.1797L43.8531 24.0156C43.7906 24.2292 43.6839 24.4583 43.5328 24.7031C43.3818 24.9479 43.1839 25.1823 42.9391 25.4062C42.6995 25.625 42.4104 25.8047 42.0719 25.9453C41.7385 26.0859 41.3531 26.1562 40.9156 26.1562C40.3635 26.1562 39.8714 26.0469 39.4391 25.8281C39.0068 25.6042 38.6682 25.3047 38.4234 24.9297C38.1786 24.5495 38.0562 24.1198 38.0562 23.6406C38.0562 23.1927 38.1396 22.7969 38.3062 22.4531C38.4781 22.1042 38.7281 21.8125 39.0562 21.5781C39.3896 21.3438 39.7958 21.1667 40.275 21.0469C40.7542 20.9219 41.301 20.8594 41.9156 20.8594H43.3922ZM22.7437 43.4453V45H17.0328V43.4453H22.7437ZM17.5797 33.625V45H15.6187V33.625H17.5797ZM23.7125 40.8672V40.6875C23.7125 40.0781 23.801 39.513 23.9781 38.9922C24.1552 38.4661 24.4104 38.0104 24.7437 37.625C25.0823 37.2344 25.4937 36.9323 25.9781 36.7188C26.4677 36.5 27.0198 36.3906 27.6344 36.3906C28.2542 36.3906 28.8062 36.5 29.2906 36.7188C29.7802 36.9323 30.1943 37.2344 30.5328 37.625C30.8714 38.0104 31.1292 38.4661 31.3062 38.9922C31.4833 39.513 31.5719 40.0781 31.5719 40.6875V40.8672C31.5719 41.4766 31.4833 42.0417 31.3062 42.5625C31.1292 43.0833 30.8714 43.5391 30.5328 43.9297C30.1943 44.3151 29.7828 44.6172 29.2984 44.8359C28.8141 45.0495 28.2646 45.1562 27.65 45.1562C27.0302 45.1562 26.4755 45.0495 25.9859 44.8359C25.5016 44.6172 25.0901 44.3151 24.7516 43.9297C24.413 43.5391 24.1552 43.0833 23.9781 42.5625C23.801 42.0417 23.7125 41.4766 23.7125 40.8672ZM25.5953 40.6875V40.8672C25.5953 41.2474 25.6344 41.6068 25.7125 41.9453C25.7906 42.2839 25.913 42.5807 26.0797 42.8359C26.2464 43.0911 26.4599 43.2917 26.7203 43.4375C26.9807 43.5833 27.2906 43.6562 27.65 43.6562C27.999 43.6562 28.301 43.5833 28.5562 43.4375C28.8167 43.2917 29.0302 43.0911 29.1969 42.8359C29.3635 42.5807 29.4859 42.2839 29.5641 41.9453C29.6474 41.6068 29.6891 41.2474 29.6891 40.8672V40.6875C29.6891 40.3125 29.6474 39.9583 29.5641 39.625C29.4859 39.2865 29.3609 38.987 29.1891 38.7266C29.0224 38.4661 28.8089 38.263 28.5484 38.1172C28.2932 37.9661 27.9885 37.8906 27.6344 37.8906C27.2802 37.8906 26.9729 37.9661 26.7125 38.1172C26.4573 38.263 26.2464 38.4661 26.0797 38.7266C25.913 38.987 25.7906 39.2865 25.7125 39.625C25.6344 39.9583 25.5953 40.3125 25.5953 40.6875ZM38.5641 36.5469H40.275V44.7656C40.275 45.526 40.1135 46.1719 39.7906 46.7031C39.4677 47.2344 39.0172 47.638 38.4391 47.9141C37.8609 48.1953 37.1917 48.3359 36.4312 48.3359C36.1083 48.3359 35.749 48.2891 35.3531 48.1953C34.9625 48.1016 34.5823 47.9505 34.2125 47.7422C33.8479 47.5391 33.5432 47.2708 33.2984 46.9375L34.1812 45.8281C34.4833 46.1875 34.8167 46.4505 35.1812 46.6172C35.5458 46.7839 35.9286 46.8672 36.3297 46.8672C36.762 46.8672 37.1292 46.7865 37.4312 46.625C37.7385 46.4688 37.9755 46.237 38.1422 45.9297C38.3089 45.6224 38.3922 45.2474 38.3922 44.8047V38.4609L38.5641 36.5469ZM32.8219 40.8672V40.7031C32.8219 40.0625 32.9 39.4792 33.0562 38.9531C33.2125 38.4219 33.4365 37.9661 33.7281 37.5859C34.0198 37.2005 34.374 36.9062 34.7906 36.7031C35.2073 36.4948 35.6786 36.3906 36.2047 36.3906C36.7516 36.3906 37.2177 36.4896 37.6031 36.6875C37.9937 36.8854 38.3193 37.1693 38.5797 37.5391C38.8401 37.9036 39.0432 38.3411 39.1891 38.8516C39.3401 39.3568 39.4521 39.9193 39.525 40.5391V41.0625C39.4573 41.6667 39.3427 42.2188 39.1812 42.7188C39.0198 43.2188 38.8062 43.651 38.5406 44.0156C38.275 44.3802 37.9469 44.6615 37.5562 44.8594C37.1708 45.0573 36.7151 45.1562 36.1891 45.1562C35.6734 45.1562 35.2073 45.0495 34.7906 44.8359C34.3792 44.6224 34.025 44.3229 33.7281 43.9375C33.4365 43.5521 33.2125 43.099 33.0562 42.5781C32.9 42.0521 32.8219 41.4818 32.8219 40.8672ZM34.7047 40.7031V40.8672C34.7047 41.2526 34.7411 41.612 34.8141 41.9453C34.8922 42.2786 35.0094 42.5729 35.1656 42.8281C35.3271 43.0781 35.5302 43.276 35.775 43.4219C36.025 43.5625 36.3193 43.6328 36.6578 43.6328C37.1005 43.6328 37.4625 43.5391 37.7437 43.3516C38.0302 43.1641 38.249 42.9115 38.4 42.5938C38.5562 42.2708 38.6656 41.9115 38.7281 41.5156V40.1016C38.6969 39.7943 38.6318 39.5078 38.5328 39.2422C38.4391 38.9766 38.3115 38.7448 38.15 38.5469C37.9885 38.3438 37.7854 38.1875 37.5406 38.0781C37.2958 37.9635 37.0068 37.9062 36.6734 37.9062C36.3349 37.9062 36.0406 37.9792 35.7906 38.125C35.5406 38.2708 35.3349 38.4714 35.1734 38.7266C35.0172 38.9818 34.9 39.2786 34.8219 39.6172C34.7437 39.9557 34.7047 40.3177 34.7047 40.7031ZM41.8688 40.8672V40.6875C41.8688 40.0781 41.9573 39.513 42.1344 38.9922C42.3115 38.4661 42.5667 38.0104 42.9 37.625C43.2385 37.2344 43.65 36.9323 44.1344 36.7188C44.624 36.5 45.176 36.3906 45.7906 36.3906C46.4104 36.3906 46.9625 36.5 47.4469 36.7188C47.9365 36.9323 48.3505 37.2344 48.6891 37.625C49.0276 38.0104 49.2854 38.4661 49.4625 38.9922C49.6396 39.513 49.7281 40.0781 49.7281 40.6875V40.8672C49.7281 41.4766 49.6396 42.0417 49.4625 42.5625C49.2854 43.0833 49.0276 43.5391 48.6891 43.9297C48.3505 44.3151 47.9391 44.6172 47.4547 44.8359C46.9703 45.0495 46.4208 45.1562 45.8063 45.1562C45.1865 45.1562 44.6318 45.0495 44.1422 44.8359C43.6578 44.6172 43.2464 44.3151 42.9078 43.9297C42.5693 43.5391 42.3115 43.0833 42.1344 42.5625C41.9573 42.0417 41.8688 41.4766 41.8688 40.8672ZM43.7516 40.6875V40.8672C43.7516 41.2474 43.7906 41.6068 43.8688 41.9453C43.9469 42.2839 44.0693 42.5807 44.2359 42.8359C44.4026 43.0911 44.6161 43.2917 44.8766 43.4375C45.137 43.5833 45.4469 43.6562 45.8063 43.6562C46.1552 43.6562 46.4573 43.5833 46.7125 43.4375C46.9729 43.2917 47.1865 43.0911 47.3531 42.8359C47.5198 42.5807 47.6422 42.2839 47.7203 41.9453C47.8036 41.6068 47.8453 41.2474 47.8453 40.8672V40.6875C47.8453 40.3125 47.8036 39.9583 47.7203 39.625C47.6422 39.2865 47.5172 38.987 47.3453 38.7266C47.1786 38.4661 46.9651 38.263 46.7047 38.1172C46.4495 37.9661 46.1448 37.8906 45.7906 37.8906C45.4365 37.8906 45.1292 37.9661 44.8688 38.1172C44.6135 38.263 44.4026 38.4661 44.2359 38.7266C44.0693 38.987 43.9469 39.2865 43.8688 39.625C43.7906 39.9583 43.7516 40.3125 43.7516 40.6875Z" fill="white"/>
</svg>
