<svg width="250" height="231" viewBox="0 0 250 231" fill="none" xmlns="http://www.w3.org/2000/svg">
<path d="M116.793 8.45837C131.034 8.45837 144.691 14.1235 154.761 24.2075C164.83 34.2915 170.488 47.9683 170.488 62.2292C170.488 76.4901 164.83 90.1669 154.761 100.251C144.691 110.335 131.034 116 116.793 116C102.553 116 88.8954 110.335 78.8258 100.251C68.7562 90.1669 63.0991 76.4901 63.0991 62.2292C63.0991 47.9683 68.7562 34.2915 78.8258 24.2075C88.8954 14.1235 102.553 8.45837 116.793 8.45837ZM73.1668 62.2292C73.1668 73.8162 77.7631 84.9286 85.9447 93.1219C94.1263 101.315 105.223 105.918 116.793 105.918C128.364 105.918 139.46 101.315 147.642 93.1219C155.824 84.9286 160.42 73.8162 160.42 62.2292C160.42 50.6422 155.824 39.5298 147.642 31.3366C139.46 23.1433 128.364 18.5404 116.793 18.5404C105.223 18.5404 94.1263 23.1433 85.9447 31.3366C77.7631 39.5298 73.1668 50.6422 73.1668 62.2292ZM105.914 43.5909L134.533 60.7908C134.78 60.9404 134.984 61.1514 135.126 61.4034C135.268 61.6554 135.343 61.9399 135.343 62.2292C135.343 62.5186 135.268 62.803 135.126 63.055C134.984 63.307 134.78 63.518 134.533 63.6676L105.914 80.8675C105.659 81.021 105.368 81.1041 105.071 81.1083C104.774 81.1125 104.481 81.0377 104.223 80.8914C103.964 80.7451 103.749 80.5326 103.599 80.2757C103.449 80.0188 103.37 79.7267 103.37 79.4292V45.036C103.369 44.7379 103.447 44.4449 103.596 44.187C103.746 43.9292 103.961 43.7158 104.22 43.5687C104.479 43.4216 104.772 43.3462 105.07 43.3501C105.367 43.354 105.659 43.4371 105.914 43.5909Z" fill="#FF5F05"/>
<line y1="-6" x2="100" y2="-6" transform="matrix(-0.792447 0.60994 -0.608848 -0.793287 151.245 26)" stroke="#FF5F05" stroke-width="12"/>
<path d="M15.5455 177H2.64205V142.091H15.5284C19.0852 142.091 22.1477 142.79 24.7159 144.188C27.2955 145.574 29.2841 147.574 30.6818 150.188C32.0795 152.79 32.7784 155.903 32.7784 159.528C32.7784 163.165 32.0795 166.29 30.6818 168.903C29.2955 171.517 27.3125 173.523 24.733 174.92C22.1534 176.307 19.0909 177 15.5455 177ZM11.0795 169.807H15.2216C17.1761 169.807 18.8295 169.477 20.1818 168.818C21.5455 168.148 22.5739 167.062 23.267 165.562C23.9716 164.051 24.3239 162.04 24.3239 159.528C24.3239 157.017 23.9716 155.017 23.267 153.528C22.5625 152.028 21.5227 150.949 20.1477 150.29C18.7841 149.619 17.1023 149.284 15.1023 149.284H11.0795V169.807ZM49.9432 177.494C47.2045 177.494 44.8409 176.955 42.8523 175.875C40.875 174.784 39.3523 173.233 38.2841 171.222C37.2273 169.199 36.6989 166.795 36.6989 164.011C36.6989 161.307 37.233 158.943 38.3011 156.92C39.3693 154.886 40.875 153.307 42.8182 152.182C44.7614 151.045 47.0511 150.477 49.6875 150.477C51.5511 150.477 53.2557 150.767 54.8011 151.347C56.3466 151.926 57.6818 152.784 58.8068 153.92C59.9318 155.057 60.8068 156.46 61.4318 158.131C62.0568 159.79 62.3693 161.693 62.3693 163.841V165.92H39.6136V161.08H54.6136C54.6023 160.193 54.392 159.403 53.983 158.71C53.5739 158.017 53.0114 157.477 52.2955 157.091C51.5909 156.693 50.7784 156.494 49.858 156.494C48.9261 156.494 48.0909 156.705 47.3523 157.125C46.6136 157.534 46.0284 158.097 45.5966 158.812C45.1648 159.517 44.9375 160.318 44.9148 161.216V166.142C44.9148 167.21 45.125 168.148 45.5455 168.955C45.9659 169.75 46.5625 170.369 47.3352 170.812C48.108 171.256 49.0284 171.477 50.0966 171.477C50.8352 171.477 51.5057 171.375 52.108 171.17C52.7102 170.966 53.2273 170.665 53.6591 170.267C54.0909 169.869 54.4148 169.381 54.6307 168.801L62.2841 169.023C61.9659 170.739 61.267 172.233 60.1875 173.506C59.1193 174.767 57.7159 175.75 55.9773 176.455C54.2386 177.148 52.2273 177.494 49.9432 177.494ZM89.4844 158.812L81.831 159.017C81.7514 158.472 81.5355 157.989 81.1832 157.568C80.831 157.136 80.3707 156.801 79.8026 156.562C79.2457 156.312 78.598 156.188 77.8594 156.188C76.8935 156.188 76.0696 156.381 75.3878 156.767C74.7173 157.153 74.3878 157.676 74.3991 158.335C74.3878 158.847 74.5923 159.29 75.0128 159.665C75.4446 160.04 76.2116 160.341 77.3139 160.568L82.3594 161.523C84.973 162.023 86.9162 162.852 88.1889 164.011C89.473 165.17 90.1207 166.705 90.1321 168.614C90.1207 170.409 89.5866 171.972 88.5298 173.301C87.4844 174.631 86.0526 175.665 84.2344 176.403C82.4162 177.131 80.3366 177.494 77.9957 177.494C74.2571 177.494 71.3082 176.727 69.1491 175.193C67.0014 173.648 65.7741 171.58 65.4673 168.989L73.7003 168.784C73.8821 169.739 74.3537 170.466 75.1151 170.966C75.8764 171.466 76.848 171.716 78.0298 171.716C79.098 171.716 79.9673 171.517 80.6378 171.119C81.3082 170.722 81.6491 170.193 81.6605 169.534C81.6491 168.943 81.3878 168.472 80.8764 168.119C80.3651 167.756 79.5639 167.472 78.473 167.267L73.9048 166.398C71.2798 165.92 69.3253 165.04 68.0412 163.756C66.7571 162.46 66.1207 160.812 66.1321 158.812C66.1207 157.062 66.5866 155.568 67.5298 154.33C68.473 153.08 69.8139 152.125 71.5526 151.466C73.2912 150.807 75.3423 150.477 77.706 150.477C81.2514 150.477 84.0469 151.222 86.0923 152.71C88.1378 154.187 89.2685 156.222 89.4844 158.812ZM106.457 177.494C103.696 177.494 101.327 176.926 99.3494 175.79C97.3835 174.653 95.8722 173.074 94.8153 171.051C93.7585 169.017 93.2301 166.665 93.2301 163.994C93.2301 161.312 93.7585 158.96 94.8153 156.938C95.8835 154.903 97.4006 153.318 99.3665 152.182C101.344 151.045 103.702 150.477 106.44 150.477C108.861 150.477 110.969 150.915 112.764 151.79C114.571 152.665 115.98 153.903 116.991 155.506C118.014 157.097 118.554 158.966 118.611 161.114H110.821C110.662 159.773 110.207 158.722 109.457 157.96C108.719 157.199 107.753 156.818 106.56 156.818C105.594 156.818 104.747 157.091 104.02 157.636C103.293 158.17 102.724 158.966 102.315 160.023C101.918 161.068 101.719 162.364 101.719 163.909C101.719 165.455 101.918 166.761 102.315 167.83C102.724 168.886 103.293 169.687 104.02 170.233C104.747 170.767 105.594 171.034 106.56 171.034C107.332 171.034 108.014 170.869 108.605 170.54C109.207 170.21 109.702 169.727 110.088 169.091C110.474 168.443 110.719 167.659 110.821 166.739H118.611C118.531 168.898 117.991 170.784 116.991 172.398C116.003 174.011 114.611 175.267 112.815 176.165C111.031 177.051 108.912 177.494 106.457 177.494ZM139.768 165.699V150.818H148.087V177H140.143V172.125H139.871C139.291 173.727 138.303 175 136.905 175.943C135.518 176.875 133.842 177.341 131.876 177.341C130.092 177.341 128.524 176.932 127.172 176.114C125.82 175.295 124.768 174.153 124.018 172.688C123.268 171.21 122.888 169.483 122.876 167.506V150.818H131.212V165.869C131.223 167.29 131.598 168.409 132.337 169.227C133.075 170.045 134.081 170.455 135.354 170.455C136.183 170.455 136.928 170.273 137.587 169.909C138.257 169.534 138.786 168.994 139.172 168.29C139.57 167.574 139.768 166.71 139.768 165.699ZM161.727 142.091V177H153.392V142.091H161.727ZM167.033 186.818V150.818H175.283V155.301H175.538C175.879 154.506 176.362 153.739 176.987 153C177.624 152.261 178.43 151.659 179.408 151.193C180.396 150.716 181.578 150.477 182.953 150.477C184.771 150.477 186.47 150.955 188.05 151.909C189.641 152.864 190.925 154.335 191.902 156.324C192.879 158.312 193.368 160.847 193.368 163.926C193.368 166.892 192.896 169.375 191.953 171.375C191.021 173.375 189.76 174.875 188.169 175.875C186.589 176.875 184.834 177.375 182.902 177.375C181.584 177.375 180.442 177.159 179.476 176.727C178.51 176.295 177.697 175.727 177.038 175.023C176.391 174.318 175.891 173.562 175.538 172.756H175.368V186.818H167.033ZM175.197 163.909C175.197 165.318 175.385 166.545 175.76 167.591C176.146 168.636 176.697 169.449 177.413 170.028C178.141 170.597 179.01 170.881 180.021 170.881C181.044 170.881 181.913 170.597 182.629 170.028C183.345 169.449 183.885 168.636 184.249 167.591C184.624 166.545 184.811 165.318 184.811 163.909C184.811 162.5 184.624 161.278 184.249 160.244C183.885 159.21 183.345 158.409 182.629 157.841C181.925 157.273 181.055 156.989 180.021 156.989C178.999 156.989 178.129 157.267 177.413 157.824C176.697 158.381 176.146 159.176 175.76 160.21C175.385 161.244 175.197 162.477 175.197 163.909ZM209.974 177.494C207.236 177.494 204.872 176.955 202.884 175.875C200.906 174.784 199.384 173.233 198.315 171.222C197.259 169.199 196.73 166.795 196.73 164.011C196.73 161.307 197.264 158.943 198.332 156.92C199.401 154.886 200.906 153.307 202.849 152.182C204.793 151.045 207.082 150.477 209.719 150.477C211.582 150.477 213.287 150.767 214.832 151.347C216.378 151.926 217.713 152.784 218.838 153.92C219.963 155.057 220.838 156.46 221.463 158.131C222.088 159.79 222.401 161.693 222.401 163.841V165.92H199.645V161.08H214.645C214.634 160.193 214.423 159.403 214.014 158.71C213.605 158.017 213.043 157.477 212.327 157.091C211.622 156.693 210.81 156.494 209.889 156.494C208.957 156.494 208.122 156.705 207.384 157.125C206.645 157.534 206.06 158.097 205.628 158.812C205.196 159.517 204.969 160.318 204.946 161.216V166.142C204.946 167.21 205.156 168.148 205.577 168.955C205.997 169.75 206.594 170.369 207.366 170.812C208.139 171.256 209.06 171.477 210.128 171.477C210.866 171.477 211.537 171.375 212.139 171.17C212.741 170.966 213.259 170.665 213.69 170.267C214.122 169.869 214.446 169.381 214.662 168.801L222.315 169.023C221.997 170.739 221.298 172.233 220.219 173.506C219.151 174.767 217.747 175.75 216.009 176.455C214.27 177.148 212.259 177.494 209.974 177.494ZM236.459 142.091L235.675 166.312H228.669L227.885 142.091H236.459ZM232.163 177.494C230.947 177.494 229.902 177.062 229.027 176.199C228.163 175.335 227.732 174.29 227.732 173.062C227.732 171.858 228.163 170.83 229.027 169.977C229.902 169.114 230.947 168.682 232.163 168.682C233.334 168.682 234.362 169.114 235.249 169.977C236.146 170.83 236.595 171.858 236.595 173.062C236.595 173.881 236.385 174.625 235.964 175.295C235.555 175.966 235.016 176.5 234.345 176.898C233.686 177.295 232.959 177.494 232.163 177.494Z" fill="black"/>
<path d="M3.39773 224H0.375L4.30114 212.364H8.04545L11.9716 224H8.94886L6.21591 215.295H6.125L3.39773 224ZM2.99432 219.42H9.3125V221.557H2.99432V219.42ZM16.0028 212.364V224H13.2244V212.364H16.0028ZM21.8395 227.455C21.0099 227.455 20.2997 227.339 19.7088 227.108C19.1179 226.877 18.6539 226.561 18.3168 226.159C17.9796 225.758 17.777 225.303 17.7088 224.795L20.3395 224.648C20.3887 224.826 20.4796 224.981 20.6122 225.114C20.7486 225.246 20.9247 225.348 21.1406 225.42C21.3603 225.492 21.6179 225.528 21.9134 225.528C22.3793 225.528 22.7637 225.415 23.0668 225.188C23.3736 224.964 23.527 224.572 23.527 224.011V222.477H23.4304C23.3205 222.746 23.1539 222.987 22.9304 223.199C22.7069 223.411 22.4285 223.578 22.0952 223.699C21.7656 223.82 21.3868 223.881 20.9588 223.881C20.3224 223.881 19.7391 223.733 19.2088 223.438C18.6823 223.138 18.2599 222.676 17.9418 222.051C17.6274 221.422 17.4702 220.614 17.4702 219.625C17.4702 218.606 17.633 217.767 17.9588 217.108C18.2846 216.445 18.7107 215.955 19.2372 215.636C19.7675 215.318 20.3376 215.159 20.9474 215.159C21.4058 215.159 21.7978 215.239 22.1236 215.398C22.4531 215.553 22.724 215.754 22.9361 216C23.1482 216.246 23.3092 216.502 23.419 216.767H23.4986V215.273H26.2656V224.034C26.2656 224.773 26.08 225.396 25.7088 225.903C25.3376 226.411 24.8187 226.795 24.152 227.057C23.4853 227.322 22.7145 227.455 21.8395 227.455ZM21.9247 221.858C22.2618 221.858 22.5497 221.769 22.7884 221.591C23.027 221.413 23.2107 221.157 23.3395 220.824C23.4683 220.491 23.5327 220.091 23.5327 219.625C23.5327 219.152 23.4683 218.744 23.3395 218.403C23.2145 218.059 23.0308 217.794 22.7884 217.608C22.5497 217.422 22.2618 217.33 21.9247 217.33C21.58 217.33 21.2884 217.424 21.0497 217.614C20.8111 217.803 20.6293 218.07 20.5043 218.415C20.383 218.756 20.3224 219.159 20.3224 219.625C20.3224 220.091 20.3849 220.491 20.5099 220.824C20.6349 221.157 20.8149 221.413 21.0497 221.591C21.2884 221.769 21.58 221.858 21.9247 221.858ZM32.1108 224.165C31.1941 224.165 30.4063 223.977 29.7472 223.602C29.0919 223.223 28.5862 222.697 28.2301 222.023C27.8778 221.345 27.7017 220.559 27.7017 219.665C27.7017 218.767 27.8778 217.981 28.2301 217.307C28.5862 216.629 29.0919 216.102 29.7472 215.727C30.4063 215.348 31.1941 215.159 32.1108 215.159C33.0275 215.159 33.8134 215.348 34.4688 215.727C35.1278 216.102 35.6335 216.629 35.9858 217.307C36.3419 217.981 36.5199 218.767 36.5199 219.665C36.5199 220.559 36.3419 221.345 35.9858 222.023C35.6335 222.697 35.1278 223.223 34.4688 223.602C33.8134 223.977 33.0275 224.165 32.1108 224.165ZM32.1278 222.068C32.4612 222.068 32.7434 221.966 32.9744 221.761C33.2055 221.557 33.3816 221.273 33.5028 220.909C33.6278 220.545 33.6903 220.125 33.6903 219.648C33.6903 219.163 33.6278 218.739 33.5028 218.375C33.3816 218.011 33.2055 217.727 32.9744 217.523C32.7434 217.318 32.4612 217.216 32.1278 217.216C31.7831 217.216 31.4915 217.318 31.2528 217.523C31.018 217.727 30.8381 218.011 30.7131 218.375C30.5919 218.739 30.5312 219.163 30.5312 219.648C30.5312 220.125 30.5919 220.545 30.7131 220.909C30.8381 221.273 31.018 221.557 31.2528 221.761C31.4915 221.966 31.7831 222.068 32.1278 222.068ZM41.3807 224V215.273H44.1591V224H41.3807ZM42.7727 214.256C42.3826 214.256 42.0473 214.127 41.767 213.869C41.4867 213.608 41.3466 213.294 41.3466 212.926C41.3466 212.562 41.4867 212.252 41.767 211.994C42.0473 211.733 42.3826 211.602 42.7727 211.602C43.1667 211.602 43.5019 211.733 43.7784 211.994C44.0587 212.252 44.1989 212.562 44.1989 212.926C44.1989 213.294 44.0587 213.608 43.7784 213.869C43.5019 214.127 43.1667 214.256 42.7727 214.256ZM48.706 219.023V224H45.9276V215.273H48.5696V216.875H48.6662C48.8594 216.341 49.1889 215.922 49.6548 215.619C50.1207 215.312 50.6757 215.159 51.3196 215.159C51.9332 215.159 52.4654 215.297 52.9162 215.574C53.3707 215.847 53.723 216.229 53.973 216.722C54.2268 217.21 54.3518 217.782 54.348 218.438V224H51.5696V218.983C51.5734 218.498 51.4503 218.119 51.2003 217.847C50.9541 217.574 50.6113 217.438 50.1719 217.438C49.8802 217.438 49.6226 217.502 49.3991 217.631C49.1795 217.756 49.009 217.936 48.8878 218.17C48.7704 218.405 48.7098 218.689 48.706 219.023ZM60.1477 224.165C59.2348 224.165 58.447 223.985 57.7841 223.625C57.125 223.261 56.6174 222.744 56.2614 222.074C55.9091 221.4 55.733 220.598 55.733 219.67C55.733 218.769 55.911 217.981 56.267 217.307C56.6231 216.629 57.125 216.102 57.7727 215.727C58.4205 215.348 59.1837 215.159 60.0625 215.159C60.6837 215.159 61.2519 215.256 61.767 215.449C62.2822 215.642 62.7273 215.928 63.1023 216.307C63.4773 216.686 63.7689 217.153 63.9773 217.71C64.1856 218.263 64.2898 218.898 64.2898 219.614V220.307H56.7045V218.693H61.7045C61.7008 218.398 61.6307 218.134 61.4943 217.903C61.358 217.672 61.1705 217.492 60.9318 217.364C60.697 217.231 60.4261 217.165 60.1193 217.165C59.8087 217.165 59.5303 217.235 59.2841 217.375C59.0379 217.511 58.8428 217.699 58.6989 217.938C58.5549 218.172 58.4792 218.439 58.4716 218.739V220.381C58.4716 220.737 58.5417 221.049 58.6818 221.318C58.822 221.583 59.0208 221.79 59.2784 221.938C59.536 222.085 59.8428 222.159 60.1989 222.159C60.4451 222.159 60.6686 222.125 60.8693 222.057C61.0701 221.989 61.2424 221.888 61.3864 221.756C61.5303 221.623 61.6383 221.46 61.7102 221.267L64.2614 221.341C64.1553 221.913 63.9223 222.411 63.5625 222.835C63.2064 223.256 62.7386 223.583 62.1591 223.818C61.5795 224.049 60.9091 224.165 60.1477 224.165ZM73.3281 217.938L70.777 218.006C70.7505 217.824 70.6785 217.663 70.5611 217.523C70.4437 217.379 70.2902 217.267 70.1009 217.188C69.9152 217.104 69.6993 217.062 69.4531 217.062C69.1312 217.062 68.8565 217.127 68.6293 217.256C68.4058 217.384 68.2959 217.559 68.2997 217.778C68.2959 217.949 68.3641 218.097 68.5043 218.222C68.6482 218.347 68.9039 218.447 69.2713 218.523L70.9531 218.841C71.8243 219.008 72.4721 219.284 72.8963 219.67C73.3243 220.057 73.5402 220.568 73.544 221.205C73.5402 221.803 73.3622 222.324 73.0099 222.767C72.6615 223.21 72.1842 223.555 71.5781 223.801C70.9721 224.044 70.2789 224.165 69.4986 224.165C68.2524 224.165 67.2694 223.909 66.5497 223.398C65.8338 222.883 65.4247 222.193 65.3224 221.33L68.0668 221.261C68.1274 221.58 68.2846 221.822 68.5384 221.989C68.7921 222.155 69.116 222.239 69.5099 222.239C69.866 222.239 70.1558 222.172 70.3793 222.04C70.6027 221.907 70.7164 221.731 70.7202 221.511C70.7164 221.314 70.6293 221.157 70.4588 221.04C70.2884 220.919 70.0213 220.824 69.6577 220.756L68.1349 220.466C67.2599 220.307 66.6084 220.013 66.1804 219.585C65.7524 219.153 65.5402 218.604 65.544 217.938C65.5402 217.354 65.6955 216.856 66.0099 216.443C66.3243 216.027 66.7713 215.708 67.3509 215.489C67.9304 215.269 68.6141 215.159 69.402 215.159C70.5838 215.159 71.5156 215.407 72.1974 215.903C72.8793 216.396 73.2562 217.074 73.3281 217.938ZM74.9119 227.273V215.273H77.6619V216.767H77.7472C77.8608 216.502 78.0218 216.246 78.2301 216C78.4422 215.754 78.7112 215.553 79.0369 215.398C79.3665 215.239 79.7604 215.159 80.2188 215.159C80.8248 215.159 81.3911 215.318 81.9176 215.636C82.4479 215.955 82.8759 216.445 83.2017 217.108C83.5275 217.771 83.6903 218.616 83.6903 219.642C83.6903 220.631 83.5331 221.458 83.2188 222.125C82.9081 222.792 82.4877 223.292 81.9574 223.625C81.4309 223.958 80.8456 224.125 80.2017 224.125C79.7623 224.125 79.3816 224.053 79.0597 223.909C78.7377 223.765 78.4669 223.576 78.2472 223.341C78.0312 223.106 77.8646 222.854 77.7472 222.585H77.6903V227.273H74.9119ZM77.6335 219.636C77.6335 220.106 77.696 220.515 77.821 220.864C77.9498 221.212 78.1335 221.483 78.3722 221.676C78.6146 221.866 78.9044 221.96 79.2415 221.96C79.5824 221.96 79.8722 221.866 80.1108 221.676C80.3494 221.483 80.5294 221.212 80.6506 220.864C80.7756 220.515 80.8381 220.106 80.8381 219.636C80.8381 219.167 80.7756 218.759 80.6506 218.415C80.5294 218.07 80.3494 217.803 80.1108 217.614C79.8759 217.424 79.5862 217.33 79.2415 217.33C78.9006 217.33 78.6108 217.422 78.3722 217.608C78.1335 217.794 77.9498 218.059 77.821 218.403C77.696 218.748 77.6335 219.159 77.6335 219.636ZM89.2259 224.165C88.313 224.165 87.5251 223.985 86.8622 223.625C86.2031 223.261 85.6955 222.744 85.3395 222.074C84.9872 221.4 84.8111 220.598 84.8111 219.67C84.8111 218.769 84.9891 217.981 85.3452 217.307C85.7012 216.629 86.2031 216.102 86.8509 215.727C87.4986 215.348 88.2618 215.159 89.1406 215.159C89.7618 215.159 90.33 215.256 90.8452 215.449C91.3603 215.642 91.8054 215.928 92.1804 216.307C92.5554 216.686 92.8471 217.153 93.0554 217.71C93.2637 218.263 93.3679 218.898 93.3679 219.614V220.307H85.7827V218.693H90.7827C90.7789 218.398 90.7088 218.134 90.5724 217.903C90.4361 217.672 90.2486 217.492 90.0099 217.364C89.7751 217.231 89.5043 217.165 89.1974 217.165C88.8868 217.165 88.6084 217.235 88.3622 217.375C88.116 217.511 87.9209 217.699 87.777 217.938C87.633 218.172 87.5573 218.439 87.5497 218.739V220.381C87.5497 220.737 87.6198 221.049 87.7599 221.318C87.9001 221.583 88.099 221.79 88.3565 221.938C88.6141 222.085 88.9209 222.159 89.277 222.159C89.5232 222.159 89.7467 222.125 89.9474 222.057C90.1482 221.989 90.3205 221.888 90.4645 221.756C90.6084 221.623 90.7164 221.46 90.7884 221.267L93.3395 221.341C93.2334 221.913 93.0005 222.411 92.6406 222.835C92.2846 223.256 91.8168 223.583 91.2372 223.818C90.6577 224.049 89.9872 224.165 89.2259 224.165ZM94.7869 224V215.273H97.4858V216.864H97.5767C97.7358 216.288 97.9953 215.86 98.3551 215.58C98.715 215.295 99.1335 215.153 99.6108 215.153C99.7396 215.153 99.8722 215.163 100.009 215.182C100.145 215.197 100.272 215.222 100.389 215.256V217.67C100.257 217.625 100.082 217.589 99.8665 217.562C99.6544 217.536 99.465 217.523 99.2983 217.523C98.9688 217.523 98.6714 217.597 98.4062 217.744C98.1449 217.888 97.9384 218.091 97.7869 218.352C97.6392 218.61 97.5653 218.913 97.5653 219.261V224H94.7869ZM103.653 224.148C103.097 224.148 102.602 224.055 102.17 223.869C101.742 223.68 101.403 223.396 101.153 223.017C100.907 222.634 100.784 222.155 100.784 221.58C100.784 221.095 100.869 220.686 101.04 220.352C101.21 220.019 101.445 219.748 101.744 219.54C102.044 219.331 102.388 219.174 102.778 219.068C103.169 218.958 103.585 218.884 104.028 218.847C104.525 218.801 104.924 218.754 105.227 218.705C105.53 218.652 105.75 218.578 105.886 218.483C106.027 218.384 106.097 218.246 106.097 218.068V218.04C106.097 217.748 105.996 217.523 105.795 217.364C105.595 217.205 105.324 217.125 104.983 217.125C104.616 217.125 104.32 217.205 104.097 217.364C103.873 217.523 103.731 217.742 103.67 218.023L101.108 217.932C101.184 217.402 101.379 216.928 101.693 216.511C102.011 216.091 102.447 215.761 103 215.523C103.557 215.28 104.225 215.159 105.006 215.159C105.563 215.159 106.076 215.225 106.545 215.358C107.015 215.487 107.424 215.676 107.773 215.926C108.121 216.172 108.39 216.475 108.58 216.835C108.773 217.195 108.869 217.606 108.869 218.068V224H106.256V222.784H106.188C106.032 223.08 105.833 223.33 105.591 223.534C105.352 223.739 105.07 223.892 104.744 223.994C104.422 224.097 104.059 224.148 103.653 224.148ZM104.511 222.33C104.811 222.33 105.08 222.269 105.318 222.148C105.561 222.027 105.754 221.86 105.898 221.648C106.042 221.432 106.114 221.182 106.114 220.898V220.068C106.034 220.11 105.938 220.148 105.824 220.182C105.714 220.216 105.593 220.248 105.46 220.278C105.328 220.309 105.191 220.335 105.051 220.358C104.911 220.381 104.777 220.402 104.648 220.42C104.386 220.462 104.163 220.527 103.977 220.614C103.795 220.701 103.655 220.814 103.557 220.955C103.462 221.091 103.415 221.254 103.415 221.443C103.415 221.731 103.517 221.951 103.722 222.102C103.93 222.254 104.193 222.33 104.511 222.33ZM113.756 224.125C113.112 224.125 112.527 223.958 112 223.625C111.473 223.292 111.053 222.792 110.739 222.125C110.424 221.458 110.267 220.631 110.267 219.642C110.267 218.616 110.43 217.771 110.756 217.108C111.081 216.445 111.508 215.955 112.034 215.636C112.564 215.318 113.134 215.159 113.744 215.159C114.203 215.159 114.595 215.239 114.92 215.398C115.246 215.553 115.515 215.754 115.727 216C115.939 216.246 116.1 216.502 116.21 216.767H116.267V212.364H119.045V224H116.295V222.585H116.21C116.093 222.854 115.926 223.106 115.71 223.341C115.494 223.576 115.223 223.765 114.898 223.909C114.576 224.053 114.195 224.125 113.756 224.125ZM114.722 221.96C115.059 221.96 115.347 221.866 115.585 221.676C115.824 221.483 116.008 221.212 116.136 220.864C116.265 220.515 116.33 220.106 116.33 219.636C116.33 219.159 116.265 218.748 116.136 218.403C116.011 218.059 115.828 217.794 115.585 217.608C115.347 217.422 115.059 217.33 114.722 217.33C114.377 217.33 114.085 217.424 113.847 217.614C113.608 217.803 113.426 218.07 113.301 218.415C113.18 218.759 113.119 219.167 113.119 219.636C113.119 220.106 113.182 220.515 113.307 220.864C113.432 221.212 113.612 221.483 113.847 221.676C114.085 221.866 114.377 221.96 114.722 221.96ZM124.876 224.165C123.96 224.165 123.172 223.977 122.513 223.602C121.857 223.223 121.352 222.697 120.996 222.023C120.643 221.345 120.467 220.559 120.467 219.665C120.467 218.767 120.643 217.981 120.996 217.307C121.352 216.629 121.857 216.102 122.513 215.727C123.172 215.348 123.96 215.159 124.876 215.159C125.793 215.159 126.579 215.348 127.234 215.727C127.893 216.102 128.399 216.629 128.751 217.307C129.107 217.981 129.286 218.767 129.286 219.665C129.286 220.559 129.107 221.345 128.751 222.023C128.399 222.697 127.893 223.223 127.234 223.602C126.579 223.977 125.793 224.165 124.876 224.165ZM124.893 222.068C125.227 222.068 125.509 221.966 125.74 221.761C125.971 221.557 126.147 221.273 126.268 220.909C126.393 220.545 126.456 220.125 126.456 219.648C126.456 219.163 126.393 218.739 126.268 218.375C126.147 218.011 125.971 217.727 125.74 217.523C125.509 217.318 125.227 217.216 124.893 217.216C124.549 217.216 124.257 217.318 124.018 217.523C123.784 217.727 123.604 218.011 123.479 218.375C123.357 218.739 123.297 219.163 123.297 219.648C123.297 220.125 123.357 220.545 123.479 220.909C123.604 221.273 123.784 221.557 124.018 221.761C124.257 221.966 124.549 222.068 124.893 222.068ZM136.607 224.148C136.05 224.148 135.555 224.055 135.124 223.869C134.696 223.68 134.357 223.396 134.107 223.017C133.86 222.634 133.737 222.155 133.737 221.58C133.737 221.095 133.822 220.686 133.993 220.352C134.163 220.019 134.398 219.748 134.697 219.54C134.997 219.331 135.341 219.174 135.732 219.068C136.122 218.958 136.538 218.884 136.982 218.847C137.478 218.801 137.877 218.754 138.18 218.705C138.483 218.652 138.703 218.578 138.839 218.483C138.98 218.384 139.05 218.246 139.05 218.068V218.04C139.05 217.748 138.949 217.523 138.749 217.364C138.548 217.205 138.277 217.125 137.936 217.125C137.569 217.125 137.273 217.205 137.05 217.364C136.826 217.523 136.684 217.742 136.624 218.023L134.061 217.932C134.137 217.402 134.332 216.928 134.646 216.511C134.964 216.091 135.4 215.761 135.953 215.523C136.51 215.28 137.179 215.159 137.959 215.159C138.516 215.159 139.029 215.225 139.499 215.358C139.968 215.487 140.377 215.676 140.726 215.926C141.074 216.172 141.343 216.475 141.533 216.835C141.726 217.195 141.822 217.606 141.822 218.068V224H139.209V222.784H139.141C138.985 223.08 138.786 223.33 138.544 223.534C138.305 223.739 138.023 223.892 137.697 223.994C137.375 224.097 137.012 224.148 136.607 224.148ZM137.464 222.33C137.764 222.33 138.033 222.269 138.271 222.148C138.514 222.027 138.707 221.86 138.851 221.648C138.995 221.432 139.067 221.182 139.067 220.898V220.068C138.987 220.11 138.891 220.148 138.777 220.182C138.667 220.216 138.546 220.248 138.413 220.278C138.281 220.309 138.144 220.335 138.004 220.358C137.864 220.381 137.73 220.402 137.601 220.42C137.339 220.462 137.116 220.527 136.93 220.614C136.749 220.701 136.608 220.814 136.51 220.955C136.415 221.091 136.368 221.254 136.368 221.443C136.368 221.731 136.47 221.951 136.675 222.102C136.883 222.254 137.146 222.33 137.464 222.33ZM147.595 224.165C146.675 224.165 145.885 223.975 145.226 223.597C144.571 223.218 144.067 222.691 143.714 222.017C143.362 221.339 143.186 220.555 143.186 219.665C143.186 218.771 143.362 217.987 143.714 217.312C144.071 216.634 144.576 216.106 145.232 215.727C145.891 215.348 146.677 215.159 147.589 215.159C148.396 215.159 149.099 215.305 149.697 215.597C150.3 215.888 150.769 216.301 151.107 216.835C151.447 217.366 151.627 217.989 151.646 218.705H149.05C148.997 218.258 148.845 217.907 148.595 217.653C148.349 217.4 148.027 217.273 147.629 217.273C147.307 217.273 147.025 217.364 146.783 217.545C146.54 217.723 146.351 217.989 146.214 218.341C146.082 218.689 146.016 219.121 146.016 219.636C146.016 220.152 146.082 220.587 146.214 220.943C146.351 221.295 146.54 221.562 146.783 221.744C147.025 221.922 147.307 222.011 147.629 222.011C147.887 222.011 148.114 221.956 148.311 221.847C148.512 221.737 148.677 221.576 148.805 221.364C148.934 221.148 149.016 220.886 149.05 220.58H151.646C151.62 221.299 151.44 221.928 151.107 222.466C150.777 223.004 150.313 223.422 149.714 223.722C149.12 224.017 148.413 224.165 147.595 224.165ZM157.142 224.165C156.225 224.165 155.438 223.977 154.778 223.602C154.123 223.223 153.617 222.697 153.261 222.023C152.909 221.345 152.733 220.559 152.733 219.665C152.733 218.767 152.909 217.981 153.261 217.307C153.617 216.629 154.123 216.102 154.778 215.727C155.438 215.348 156.225 215.159 157.142 215.159C158.059 215.159 158.845 215.348 159.5 215.727C160.159 216.102 160.665 216.629 161.017 217.307C161.373 217.981 161.551 218.767 161.551 219.665C161.551 220.559 161.373 221.345 161.017 222.023C160.665 222.697 160.159 223.223 159.5 223.602C158.845 223.977 158.059 224.165 157.142 224.165ZM157.159 222.068C157.492 222.068 157.775 221.966 158.006 221.761C158.237 221.557 158.413 221.273 158.534 220.909C158.659 220.545 158.722 220.125 158.722 219.648C158.722 219.163 158.659 218.739 158.534 218.375C158.413 218.011 158.237 217.727 158.006 217.523C157.775 217.318 157.492 217.216 157.159 217.216C156.814 217.216 156.523 217.318 156.284 217.523C156.049 217.727 155.869 218.011 155.744 218.375C155.623 218.739 155.562 219.163 155.562 219.648C155.562 220.125 155.623 220.545 155.744 220.909C155.869 221.273 156.049 221.557 156.284 221.761C156.523 221.966 156.814 222.068 157.159 222.068ZM165.753 219.023V224H162.974V215.273H165.616V216.875H165.713C165.906 216.341 166.236 215.922 166.702 215.619C167.168 215.312 167.723 215.159 168.366 215.159C168.98 215.159 169.512 215.297 169.963 215.574C170.418 215.847 170.77 216.229 171.02 216.722C171.274 217.21 171.399 217.782 171.395 218.438V224H168.616V218.983C168.62 218.498 168.497 218.119 168.247 217.847C168.001 217.574 167.658 217.438 167.219 217.438C166.927 217.438 166.67 217.502 166.446 217.631C166.226 217.756 166.056 217.936 165.935 218.17C165.817 218.405 165.757 218.689 165.753 219.023ZM178.041 215.273V217.318H172.536V215.273H178.041ZM173.689 213.182H176.467V221.256C176.467 221.426 176.494 221.564 176.547 221.67C176.604 221.773 176.685 221.847 176.791 221.892C176.897 221.934 177.024 221.955 177.172 221.955C177.278 221.955 177.39 221.945 177.507 221.926C177.628 221.903 177.719 221.884 177.78 221.869L178.2 223.875C178.068 223.913 177.88 223.96 177.638 224.017C177.399 224.074 177.113 224.11 176.78 224.125C176.128 224.155 175.57 224.08 175.104 223.898C174.642 223.712 174.287 223.424 174.041 223.034C173.799 222.644 173.681 222.153 173.689 221.562V213.182ZM183.445 224.165C182.532 224.165 181.744 223.985 181.081 223.625C180.422 223.261 179.914 222.744 179.558 222.074C179.206 221.4 179.03 220.598 179.03 219.67C179.03 218.769 179.208 217.981 179.564 217.307C179.92 216.629 180.422 216.102 181.07 215.727C181.717 215.348 182.481 215.159 183.359 215.159C183.981 215.159 184.549 215.256 185.064 215.449C185.579 215.642 186.024 215.928 186.399 216.307C186.774 216.686 187.066 217.153 187.274 217.71C187.482 218.263 187.587 218.898 187.587 219.614V220.307H180.001V218.693H185.001C184.998 218.398 184.928 218.134 184.791 217.903C184.655 217.672 184.467 217.492 184.229 217.364C183.994 217.231 183.723 217.165 183.416 217.165C183.106 217.165 182.827 217.235 182.581 217.375C182.335 217.511 182.14 217.699 181.996 217.938C181.852 218.172 181.776 218.439 181.768 218.739V220.381C181.768 220.737 181.839 221.049 181.979 221.318C182.119 221.583 182.318 221.79 182.575 221.938C182.833 222.085 183.14 222.159 183.496 222.159C183.742 222.159 183.965 222.125 184.166 222.057C184.367 221.989 184.539 221.888 184.683 221.756C184.827 221.623 184.935 221.46 185.007 221.267L187.558 221.341C187.452 221.913 187.219 222.411 186.859 222.835C186.503 223.256 186.036 223.583 185.456 223.818C184.876 224.049 184.206 224.165 183.445 224.165ZM193.08 224.165C192.159 224.165 191.369 223.975 190.71 223.597C190.055 223.218 189.551 222.691 189.199 222.017C188.847 221.339 188.67 220.555 188.67 219.665C188.67 218.771 188.847 217.987 189.199 217.312C189.555 216.634 190.061 216.106 190.716 215.727C191.375 215.348 192.161 215.159 193.074 215.159C193.881 215.159 194.583 215.305 195.182 215.597C195.784 215.888 196.254 216.301 196.591 216.835C196.932 217.366 197.112 217.989 197.131 218.705H194.534C194.481 218.258 194.33 217.907 194.08 217.653C193.833 217.4 193.511 217.273 193.114 217.273C192.792 217.273 192.509 217.364 192.267 217.545C192.025 217.723 191.835 217.989 191.699 218.341C191.566 218.689 191.5 219.121 191.5 219.636C191.5 220.152 191.566 220.587 191.699 220.943C191.835 221.295 192.025 221.562 192.267 221.744C192.509 221.922 192.792 222.011 193.114 222.011C193.371 222.011 193.598 221.956 193.795 221.847C193.996 221.737 194.161 221.576 194.29 221.364C194.419 221.148 194.5 220.886 194.534 220.58H197.131C197.104 221.299 196.924 221.928 196.591 222.466C196.261 223.004 195.797 223.422 195.199 223.722C194.604 224.017 193.898 224.165 193.08 224.165ZM202.632 224.165C201.719 224.165 200.931 223.985 200.268 223.625C199.609 223.261 199.102 222.744 198.746 222.074C198.393 221.4 198.217 220.598 198.217 219.67C198.217 218.769 198.395 217.981 198.751 217.307C199.107 216.629 199.609 216.102 200.257 215.727C200.905 215.348 201.668 215.159 202.547 215.159C203.168 215.159 203.736 215.256 204.251 215.449C204.767 215.642 205.212 215.928 205.587 216.307C205.962 216.686 206.253 217.153 206.462 217.71C206.67 218.263 206.774 218.898 206.774 219.614V220.307H199.189V218.693H204.189C204.185 218.398 204.115 218.134 203.979 217.903C203.842 217.672 203.655 217.492 203.416 217.364C203.181 217.231 202.911 217.165 202.604 217.165C202.293 217.165 202.015 217.235 201.768 217.375C201.522 217.511 201.327 217.699 201.183 217.938C201.039 218.172 200.964 218.439 200.956 218.739V220.381C200.956 220.737 201.026 221.049 201.166 221.318C201.306 221.583 201.505 221.79 201.763 221.938C202.02 222.085 202.327 222.159 202.683 222.159C202.929 222.159 203.153 222.125 203.354 222.057C203.554 221.989 203.727 221.888 203.871 221.756C204.015 221.623 204.123 221.46 204.195 221.267L206.746 221.341C206.64 221.913 206.407 222.411 206.047 222.835C205.691 223.256 205.223 223.583 204.643 223.818C204.064 224.049 203.393 224.165 202.632 224.165ZM213.824 220.233V215.273H216.597V224H213.949V222.375H213.858C213.665 222.909 213.335 223.333 212.869 223.648C212.407 223.958 211.848 224.114 211.193 224.114C210.598 224.114 210.076 223.977 209.625 223.705C209.174 223.432 208.824 223.051 208.574 222.562C208.324 222.07 208.197 221.494 208.193 220.835V215.273H210.972V220.29C210.975 220.763 211.1 221.136 211.347 221.409C211.593 221.682 211.928 221.818 212.352 221.818C212.629 221.818 212.877 221.758 213.097 221.636C213.32 221.511 213.496 221.331 213.625 221.097C213.758 220.858 213.824 220.57 213.824 220.233ZM219.928 224.165C219.518 224.165 219.168 224.021 218.876 223.733C218.589 223.445 218.446 223.097 218.45 222.688C218.446 222.286 218.589 221.943 218.876 221.659C219.168 221.371 219.518 221.227 219.928 221.227C220.314 221.227 220.655 221.371 220.95 221.659C221.25 221.943 221.401 222.286 221.405 222.688C221.401 222.96 221.329 223.208 221.189 223.432C221.053 223.655 220.873 223.833 220.649 223.966C220.429 224.098 220.189 224.165 219.928 224.165Z" fill="black"/>
</svg>
