<svg width="216" height="44" viewBox="0 0 216 44" fill="none" xmlns="http://www.w3.org/2000/svg">
<rect width="43.7967" height="43.4903" fill="#FF5F05"/>
<path d="M18.4028 16.9543C18.4028 16.8078 18.38 16.6776 18.3344 16.5636C18.2921 16.4497 18.2156 16.3455 18.1049 16.2511C17.9943 16.1567 17.838 16.0656 17.6362 15.9777C17.4376 15.8866 17.1837 15.7938 16.8745 15.6994C16.5359 15.5952 16.2234 15.4797 15.937 15.3527C15.6538 15.2225 15.4064 15.0728 15.1948 14.9035C14.9832 14.731 14.8188 14.534 14.7016 14.3127C14.5844 14.0881 14.5258 13.8293 14.5258 13.5363C14.5258 13.2466 14.5861 12.9829 14.7065 12.7453C14.8302 12.5077 15.0044 12.3026 15.229 12.1301C15.4568 11.9543 15.7254 11.8192 16.0346 11.7248C16.3439 11.6271 16.6857 11.5783 17.06 11.5783C17.5874 11.5783 18.0415 11.6759 18.4223 11.8713C18.8064 12.0666 19.101 12.3286 19.3061 12.6574C19.5144 12.9862 19.6186 13.3491 19.6186 13.7463H18.4028C18.4028 13.5119 18.3523 13.3052 18.2514 13.1261C18.1538 12.9439 18.004 12.8006 17.8022 12.6965C17.6036 12.5923 17.3514 12.5402 17.0454 12.5402C16.7557 12.5402 16.5148 12.5842 16.3227 12.672C16.1307 12.7599 15.9874 12.8787 15.893 13.0285C15.7986 13.1782 15.7514 13.3475 15.7514 13.5363C15.7514 13.6698 15.7824 13.7918 15.8442 13.9025C15.906 14.0099 16.0005 14.1108 16.1274 14.2052C16.2544 14.2964 16.4139 14.3827 16.6059 14.464C16.798 14.5454 17.0242 14.6235 17.2846 14.6984C17.6785 14.8156 18.0219 14.9458 18.3149 15.089C18.6079 15.229 18.852 15.3885 19.0473 15.5676C19.2426 15.7466 19.3891 15.95 19.4868 16.1779C19.5844 16.4025 19.6333 16.658 19.6333 16.9445C19.6333 17.244 19.573 17.5142 19.4526 17.7551C19.3322 17.9927 19.1596 18.1961 18.935 18.3654C18.7137 18.5314 18.4467 18.66 18.1342 18.7511C17.825 18.839 17.4799 18.883 17.0991 18.883C16.7573 18.883 16.4204 18.8374 16.0883 18.7463C15.7596 18.6551 15.4601 18.5168 15.1899 18.3312C14.9197 18.1424 14.7049 17.908 14.5454 17.6281C14.3859 17.3449 14.3061 17.0145 14.3061 16.6369H15.5317C15.5317 16.868 15.5708 17.0649 15.6489 17.2277C15.7303 17.3905 15.8426 17.5239 15.9858 17.6281C16.129 17.729 16.295 17.8039 16.4838 17.8527C16.6759 17.9015 16.881 17.9259 17.0991 17.9259C17.3855 17.9259 17.6248 17.8853 17.8169 17.8039C18.0122 17.7225 18.1587 17.6086 18.2563 17.4621C18.354 17.3156 18.4028 17.1463 18.4028 16.9543ZM23.7788 17.5402V13.5021H24.9604V18.7853H23.8471L23.7788 17.5402ZM23.9448 16.4416L24.3403 16.4318C24.3403 16.7866 24.3012 17.1138 24.2231 17.4133C24.145 17.7095 24.0245 17.9683 23.8618 18.1896C23.699 18.4077 23.4907 18.5786 23.2368 18.7023C22.9829 18.8228 22.6785 18.883 22.3237 18.883C22.0665 18.883 21.8305 18.8455 21.6157 18.7707C21.4008 18.6958 21.2153 18.5802 21.059 18.424C20.906 18.2677 20.7872 18.0643 20.7026 17.8136C20.618 17.563 20.5756 17.2635 20.5756 16.9152V13.5021H21.7524V16.925C21.7524 17.117 21.7752 17.2782 21.8208 17.4084C21.8663 17.5353 21.9282 17.6379 22.0063 17.716C22.0844 17.7941 22.1756 17.8495 22.2797 17.882C22.3839 17.9146 22.4946 17.9308 22.6118 17.9308C22.9471 17.9308 23.2107 17.8657 23.4028 17.7355C23.5981 17.6021 23.7365 17.423 23.8178 17.1984C23.9025 16.9738 23.9448 16.7215 23.9448 16.4416ZM29.145 17.7258V15.2062C29.145 15.0174 29.1108 14.8547 29.0424 14.7179C28.9741 14.5812 28.8699 14.4754 28.7299 14.4006C28.5932 14.3257 28.4207 14.2883 28.2124 14.2883C28.0203 14.2883 27.8543 14.3208 27.7143 14.3859C27.5743 14.451 27.4653 14.5389 27.3872 14.6496C27.309 14.7603 27.27 14.8856 27.27 15.0256H26.0981C26.0981 14.8172 26.1486 14.6154 26.2495 14.4201C26.3504 14.2248 26.4969 14.0506 26.6889 13.8976C26.881 13.7446 27.1105 13.6242 27.3774 13.5363C27.6443 13.4484 27.9438 13.4045 28.2758 13.4045C28.673 13.4045 29.0245 13.4712 29.3305 13.6047C29.6398 13.7381 29.8823 13.9399 30.0581 14.2101C30.2371 14.4771 30.3266 14.8123 30.3266 15.216V17.5646C30.3266 17.8055 30.3429 18.022 30.3755 18.214C30.4113 18.4028 30.4617 18.5672 30.5268 18.7072V18.7853H29.3208C29.2654 18.6584 29.2215 18.4972 29.1889 18.3019C29.1596 18.1034 29.145 17.9113 29.145 17.7258ZM29.3159 15.5724L29.3256 16.3H28.4809C28.2628 16.3 28.0708 16.3211 27.9047 16.3634C27.7387 16.4025 27.6004 16.4611 27.4897 16.5392C27.379 16.6174 27.296 16.7118 27.2407 16.8224C27.1853 16.9331 27.1577 17.0584 27.1577 17.1984C27.1577 17.3384 27.1902 17.467 27.2553 17.5842C27.3204 17.6981 27.4148 17.7876 27.5385 17.8527C27.6655 17.9178 27.8185 17.9504 27.9975 17.9504C28.2384 17.9504 28.4484 17.9015 28.6274 17.8039C28.8097 17.703 28.9529 17.5809 29.0571 17.4377C29.1613 17.2912 29.2166 17.1528 29.2231 17.0226L29.604 17.5451C29.5649 17.6786 29.4982 17.8218 29.4038 17.9748C29.3094 18.1278 29.1857 18.2743 29.0327 18.4142C28.8829 18.5509 28.7023 18.6633 28.4907 18.7511C28.2824 18.839 28.0415 18.883 27.768 18.883C27.423 18.883 27.1154 18.8146 26.8452 18.6779C26.575 18.5379 26.3634 18.3508 26.2104 18.1164C26.0574 17.8787 25.9809 17.6102 25.9809 17.3107C25.9809 17.0308 26.033 16.7834 26.1372 16.5685C26.2446 16.3504 26.4008 16.1681 26.6059 16.0217C26.8143 15.8752 27.0682 15.7645 27.3676 15.6896C27.6671 15.6115 28.0089 15.5724 28.393 15.5724H29.3159ZM16.4106 29.8136V30.7853H12.8413V29.8136H16.4106ZM13.1831 23.6759V30.7853H11.9575V23.6759H13.1831ZM17.0161 28.2023V28.09C17.0161 27.7092 17.0714 27.356 17.1821 27.0304C17.2928 26.7017 17.4523 26.4168 17.6606 26.1759C17.8722 25.9318 18.1294 25.743 18.4321 25.6095C18.7381 25.4728 19.0831 25.4045 19.4672 25.4045C19.8546 25.4045 20.1997 25.4728 20.5024 25.6095C20.8084 25.743 21.0672 25.9318 21.2788 26.1759C21.4904 26.4168 21.6515 26.7017 21.7622 27.0304C21.8728 27.356 21.9282 27.7092 21.9282 28.09V28.2023C21.9282 28.5832 21.8728 28.9364 21.7622 29.2619C21.6515 29.5874 21.4904 29.8722 21.2788 30.1164C21.0672 30.3573 20.81 30.5461 20.5073 30.6828C20.2046 30.8162 19.8611 30.883 19.477 30.883C19.0896 30.883 18.743 30.8162 18.437 30.6828C18.1342 30.5461 17.8771 30.3573 17.6655 30.1164C17.4539 29.8722 17.2928 29.5874 17.1821 29.2619C17.0714 28.9364 17.0161 28.5832 17.0161 28.2023ZM18.1928 28.09V28.2023C18.1928 28.4399 18.2172 28.6646 18.2661 28.8761C18.3149 29.0877 18.3914 29.2733 18.4956 29.4328C18.5997 29.5923 18.7332 29.7176 18.896 29.8088C19.0587 29.8999 19.2524 29.9455 19.477 29.9455C19.6951 29.9455 19.8839 29.8999 20.0434 29.8088C20.2062 29.7176 20.3396 29.5923 20.4438 29.4328C20.548 29.2733 20.6245 29.0877 20.6733 28.8761C20.7254 28.6646 20.7514 28.4399 20.7514 28.2023V28.09C20.7514 27.8556 20.7254 27.6343 20.6733 27.4259C20.6245 27.2144 20.5463 27.0272 20.4389 26.8644C20.3348 26.7017 20.2013 26.5747 20.0385 26.4836C19.879 26.3892 19.6886 26.342 19.4672 26.342C19.2459 26.342 19.0538 26.3892 18.8911 26.4836C18.7316 26.5747 18.5997 26.7017 18.4956 26.8644C18.3914 27.0272 18.3149 27.2144 18.2661 27.4259C18.2172 27.6343 18.1928 27.8556 18.1928 28.09ZM26.2983 25.5021H27.3676V30.6388C27.3676 31.1141 27.2667 31.5177 27.0649 31.8498C26.8631 32.1818 26.5815 32.4341 26.2202 32.6066C25.8588 32.7824 25.4406 32.8703 24.9653 32.8703C24.7635 32.8703 24.5389 32.841 24.2915 32.7824C24.0473 32.7238 23.8097 32.6294 23.5786 32.4992C23.3507 32.3722 23.1603 32.2046 23.0073 31.9963L23.559 31.3029C23.7478 31.5275 23.9562 31.6919 24.184 31.7961C24.4119 31.9002 24.6512 31.9523 24.9018 31.9523C25.172 31.9523 25.4015 31.9019 25.5903 31.8009C25.7824 31.7033 25.9305 31.5584 26.0346 31.3664C26.1388 31.1743 26.1909 30.9399 26.1909 30.6633V26.6984L26.2983 25.5021ZM22.7094 28.2023V28.0998C22.7094 27.6994 22.7583 27.3348 22.8559 27.006C22.9536 26.674 23.0935 26.3892 23.2758 26.1515C23.4581 25.9106 23.6795 25.7267 23.9399 25.5998C24.2003 25.4696 24.4949 25.4045 24.8237 25.4045C25.1655 25.4045 25.4568 25.4663 25.6977 25.59C25.9419 25.7137 26.1453 25.8911 26.3081 26.1222C26.4708 26.3501 26.5978 26.6235 26.6889 26.9426C26.7833 27.2583 26.8533 27.6099 26.8989 27.9972V28.3244C26.8566 28.702 26.785 29.047 26.684 29.3595C26.5831 29.672 26.4497 29.9422 26.2837 30.1701C26.1176 30.398 25.9126 30.5737 25.6684 30.6974C25.4275 30.8211 25.1427 30.883 24.8139 30.883C24.4917 30.883 24.2003 30.8162 23.9399 30.6828C23.6827 30.5493 23.4614 30.3621 23.2758 30.1213C23.0935 29.8804 22.9536 29.5972 22.8559 29.2717C22.7583 28.9429 22.7094 28.5864 22.7094 28.2023ZM23.8862 28.0998V28.2023C23.8862 28.4432 23.909 28.6678 23.9546 28.8761C24.0034 29.0845 24.0766 29.2684 24.1743 29.4279C24.2752 29.5842 24.4021 29.7079 24.5551 29.799C24.7114 29.8869 24.8953 29.9308 25.1069 29.9308C25.3836 29.9308 25.6098 29.8722 25.7856 29.7551C25.9646 29.6379 26.1014 29.48 26.1958 29.2814C26.2934 29.0796 26.3618 28.855 26.4008 28.6076V27.7238C26.3813 27.5317 26.3406 27.3527 26.2788 27.1867C26.2202 27.0207 26.1404 26.8758 26.0395 26.7521C25.9386 26.6252 25.8116 26.5275 25.6587 26.4592C25.5057 26.3875 25.325 26.3517 25.1167 26.3517C24.9051 26.3517 24.7212 26.3973 24.5649 26.4884C24.4087 26.5796 24.2801 26.7049 24.1792 26.8644C24.0815 27.0239 24.0083 27.2095 23.9594 27.4211C23.9106 27.6327 23.8862 27.8589 23.8862 28.0998ZM28.3637 28.2023V28.09C28.3637 27.7092 28.4191 27.356 28.5297 27.0304C28.6404 26.7017 28.7999 26.4168 29.0083 26.1759C29.2199 25.9318 29.477 25.743 29.7797 25.6095C30.0857 25.4728 30.4308 25.4045 30.8149 25.4045C31.2023 25.4045 31.5473 25.4728 31.8501 25.6095C32.156 25.743 32.4148 25.9318 32.6264 26.1759C32.838 26.4168 32.9991 26.7017 33.1098 27.0304C33.2205 27.356 33.2758 27.7092 33.2758 28.09V28.2023C33.2758 28.5832 33.2205 28.9364 33.1098 29.2619C32.9991 29.5874 32.838 29.8722 32.6264 30.1164C32.4148 30.3573 32.1577 30.5461 31.8549 30.6828C31.5522 30.8162 31.2088 30.883 30.8247 30.883C30.4373 30.883 30.0906 30.8162 29.7846 30.6828C29.4819 30.5461 29.2247 30.3573 29.0131 30.1164C28.8016 29.8722 28.6404 29.5874 28.5297 29.2619C28.4191 28.9364 28.3637 28.5832 28.3637 28.2023ZM29.5405 28.09V28.2023C29.5405 28.4399 29.5649 28.6646 29.6137 28.8761C29.6626 29.0877 29.7391 29.2733 29.8432 29.4328C29.9474 29.5923 30.0809 29.7176 30.2436 29.8088C30.4064 29.8999 30.6001 29.9455 30.8247 29.9455C31.0428 29.9455 31.2316 29.8999 31.3911 29.8088C31.5538 29.7176 31.6873 29.5923 31.7915 29.4328C31.8956 29.2733 31.9721 29.0877 32.021 28.8761C32.073 28.6646 32.0991 28.4399 32.0991 28.2023V28.09C32.0991 27.8556 32.073 27.6343 32.021 27.4259C31.9721 27.2144 31.894 27.0272 31.7866 26.8644C31.6824 26.7017 31.549 26.5747 31.3862 26.4836C31.2267 26.3892 31.0363 26.342 30.8149 26.342C30.5935 26.342 30.4015 26.3892 30.2387 26.4836C30.0792 26.5747 29.9474 26.7017 29.8432 26.8644C29.7391 27.0272 29.6626 27.2144 29.6137 27.4259C29.5649 27.6343 29.5405 27.8556 29.5405 28.09Z" fill="white"/>
<path d="M57.4609 12.8516H54.5312V11.1641H57.4609C57.9401 11.1641 58.3281 11.0859 58.625 10.9297C58.9271 10.7682 59.1484 10.5495 59.2891 10.2734C59.4297 9.99219 59.5 9.67188 59.5 9.3125C59.5 8.96354 59.4297 8.63802 59.2891 8.33594C59.1484 8.03385 58.9271 7.78906 58.625 7.60156C58.3281 7.41406 57.9401 7.32031 57.4609 7.32031H55.2344V17H53.0859V5.625H57.4609C58.3464 5.625 59.1016 5.78385 59.7266 6.10156C60.3568 6.41406 60.8359 6.84896 61.1641 7.40625C61.4974 7.95833 61.6641 8.58854 61.6641 9.29688C61.6641 10.0312 61.4974 10.6641 61.1641 11.1953C60.8359 11.7266 60.3568 12.1354 59.7266 12.4219C59.1016 12.7083 58.3464 12.8516 57.4609 12.8516ZM65.3828 5V17H63.3125V5H65.3828ZM72.0078 15.2031V11.3047C72.0078 11.0182 71.9583 10.7708 71.8594 10.5625C71.7604 10.3542 71.6094 10.1927 71.4062 10.0781C71.2031 9.96354 70.9453 9.90625 70.6328 9.90625C70.3568 9.90625 70.1146 9.95312 69.9062 10.0469C69.7031 10.1406 69.5469 10.2734 69.4375 10.4453C69.3281 10.612 69.2734 10.8047 69.2734 11.0234H67.2031C67.2031 10.6745 67.2865 10.3438 67.4531 10.0312C67.6198 9.71354 67.8568 9.43229 68.1641 9.1875C68.4766 8.9375 68.849 8.74219 69.2812 8.60156C69.7188 8.46094 70.2083 8.39062 70.75 8.39062C71.3906 8.39062 71.9609 8.5 72.4609 8.71875C72.9661 8.93229 73.362 9.25521 73.6484 9.6875C73.9401 10.1198 74.0859 10.6641 74.0859 11.3203V15.0078C74.0859 15.4297 74.112 15.7917 74.1641 16.0938C74.2214 16.3906 74.3047 16.6484 74.4141 16.8672V17H72.3125C72.2135 16.7865 72.138 16.5156 72.0859 16.1875C72.0339 15.8542 72.0078 15.526 72.0078 15.2031ZM72.2969 11.8516L72.3125 13.0781H71.0078C70.6849 13.0781 70.401 13.112 70.1562 13.1797C69.9115 13.2422 69.7109 13.3359 69.5547 13.4609C69.3984 13.5807 69.2812 13.7266 69.2031 13.8984C69.125 14.0651 69.0859 14.2552 69.0859 14.4688C69.0859 14.6771 69.1328 14.8646 69.2266 15.0312C69.3255 15.1979 69.4661 15.3307 69.6484 15.4297C69.8359 15.5234 70.0547 15.5703 70.3047 15.5703C70.6693 15.5703 70.987 15.4974 71.2578 15.3516C71.5286 15.2005 71.7396 15.0182 71.8906 14.8047C72.0417 14.5911 72.1224 14.388 72.1328 14.1953L72.7266 15.0859C72.6536 15.2995 72.5443 15.526 72.3984 15.7656C72.2526 16.0052 72.0651 16.2292 71.8359 16.4375C71.6068 16.6458 71.3307 16.8177 71.0078 16.9531C70.6849 17.0885 70.3099 17.1562 69.8828 17.1562C69.3359 17.1562 68.8464 17.0469 68.4141 16.8281C67.9818 16.6094 67.6406 16.3099 67.3906 15.9297C67.1406 15.5495 67.0156 15.1172 67.0156 14.6328C67.0156 14.1849 67.099 13.7891 67.2656 13.4453C67.4323 13.1016 67.6797 12.8125 68.0078 12.5781C68.3359 12.3385 68.7422 12.1589 69.2266 12.0391C69.7161 11.9141 70.276 11.8516 70.9062 11.8516H72.2969ZM79.9453 8.54688V10.0312H75.1016V8.54688H79.9453ZM76.3984 6.46875H78.4688V14.5625C78.4688 14.8125 78.5026 15.0052 78.5703 15.1406C78.638 15.276 78.7396 15.3672 78.875 15.4141C79.0104 15.4609 79.1719 15.4844 79.3594 15.4844C79.4948 15.4844 79.6198 15.4766 79.7344 15.4609C79.849 15.4453 79.9453 15.4297 80.0234 15.4141L80.0312 16.9609C79.8594 17.0182 79.6641 17.0651 79.4453 17.1016C79.2318 17.138 78.9896 17.1562 78.7188 17.1562C78.2552 17.1562 77.849 17.0781 77.5 16.9219C77.151 16.7604 76.8802 16.5026 76.6875 16.1484C76.4948 15.7891 76.3984 15.3151 76.3984 14.7266V6.46875ZM85.9766 15.2031V11.3047C85.9766 11.0182 85.9271 10.7708 85.8281 10.5625C85.7292 10.3542 85.5781 10.1927 85.375 10.0781C85.1719 9.96354 84.9141 9.90625 84.6016 9.90625C84.3255 9.90625 84.0833 9.95312 83.875 10.0469C83.6719 10.1406 83.5156 10.2734 83.4062 10.4453C83.2969 10.612 83.2422 10.8047 83.2422 11.0234H81.1719C81.1719 10.6745 81.2552 10.3438 81.4219 10.0312C81.5885 9.71354 81.8255 9.43229 82.1328 9.1875C82.4453 8.9375 82.8177 8.74219 83.25 8.60156C83.6875 8.46094 84.1771 8.39062 84.7188 8.39062C85.3594 8.39062 85.9297 8.5 86.4297 8.71875C86.9349 8.93229 87.3307 9.25521 87.6172 9.6875C87.9089 10.1198 88.0547 10.6641 88.0547 11.3203V15.0078C88.0547 15.4297 88.0807 15.7917 88.1328 16.0938C88.1901 16.3906 88.2734 16.6484 88.3828 16.8672V17H86.2812C86.1823 16.7865 86.1068 16.5156 86.0547 16.1875C86.0026 15.8542 85.9766 15.526 85.9766 15.2031ZM86.2656 11.8516L86.2812 13.0781H84.9766C84.6536 13.0781 84.3698 13.112 84.125 13.1797C83.8802 13.2422 83.6797 13.3359 83.5234 13.4609C83.3672 13.5807 83.25 13.7266 83.1719 13.8984C83.0938 14.0651 83.0547 14.2552 83.0547 14.4688C83.0547 14.6771 83.1016 14.8646 83.1953 15.0312C83.2943 15.1979 83.4349 15.3307 83.6172 15.4297C83.8047 15.5234 84.0234 15.5703 84.2734 15.5703C84.638 15.5703 84.9557 15.4974 85.2266 15.3516C85.4974 15.2005 85.7083 15.0182 85.8594 14.8047C86.0104 14.5911 86.0911 14.388 86.1016 14.1953L86.6953 15.0859C86.6224 15.2995 86.513 15.526 86.3672 15.7656C86.2214 16.0052 86.0339 16.2292 85.8047 16.4375C85.5755 16.6458 85.2995 16.8177 84.9766 16.9531C84.6536 17.0885 84.2786 17.1562 83.8516 17.1562C83.3047 17.1562 82.8151 17.0469 82.3828 16.8281C81.9505 16.6094 81.6094 16.3099 81.3594 15.9297C81.1094 15.5495 80.9844 15.1172 80.9844 14.6328C80.9844 14.1849 81.0677 13.7891 81.2344 13.4453C81.401 13.1016 81.6484 12.8125 81.9766 12.5781C82.3047 12.3385 82.7109 12.1589 83.1953 12.0391C83.6849 11.9141 84.2448 11.8516 84.875 11.8516H86.2656ZM92.6172 17H90.5391V7.76562C90.5391 7.13021 90.6615 6.59635 90.9062 6.16406C91.151 5.72656 91.5 5.39583 91.9531 5.17188C92.4062 4.94792 92.9401 4.83594 93.5547 4.83594C93.7578 4.83594 93.9505 4.84896 94.1328 4.875C94.3203 4.90104 94.5052 4.9375 94.6875 4.98438L94.6484 6.55469C94.5495 6.52865 94.4401 6.51042 94.3203 6.5C94.2057 6.48958 94.0781 6.48438 93.9375 6.48438C93.6562 6.48438 93.4167 6.53385 93.2188 6.63281C93.0208 6.73177 92.8698 6.8776 92.7656 7.07031C92.6667 7.25781 92.6172 7.48958 92.6172 7.76562V17ZM94.3281 8.54688V10.0312H89.2656V8.54688H94.3281ZM95.2344 12.8594V12.6953C95.2344 12.0755 95.3229 11.5052 95.5 10.9844C95.6771 10.4583 95.9349 10.0026 96.2734 9.61719C96.612 9.23177 97.026 8.93229 97.5156 8.71875C98.0052 8.5 98.5625 8.39062 99.1875 8.39062C99.8229 8.39062 100.385 8.5 100.875 8.71875C101.37 8.93229 101.786 9.23177 102.125 9.61719C102.464 10.0026 102.721 10.4583 102.898 10.9844C103.076 11.5052 103.164 12.0755 103.164 12.6953V12.8594C103.164 13.474 103.076 14.0443 102.898 14.5703C102.721 15.0911 102.464 15.5469 102.125 15.9375C101.786 16.3229 101.372 16.6224 100.883 16.8359C100.393 17.0495 99.8333 17.1562 99.2031 17.1562C98.5781 17.1562 98.0182 17.0495 97.5234 16.8359C97.0286 16.6224 96.612 16.3229 96.2734 15.9375C95.9349 15.5469 95.6771 15.0911 95.5 14.5703C95.3229 14.0443 95.2344 13.474 95.2344 12.8594ZM97.2969 12.6953V12.8594C97.2969 13.2292 97.3333 13.5755 97.4062 13.8984C97.4792 14.2214 97.5911 14.5052 97.7422 14.75C97.8932 14.9948 98.0885 15.1875 98.3281 15.3281C98.5729 15.4635 98.8646 15.5312 99.2031 15.5312C99.5365 15.5312 99.8229 15.4635 100.062 15.3281C100.302 15.1875 100.497 14.9948 100.648 14.75C100.805 14.5052 100.919 14.2214 100.992 13.8984C101.065 13.5755 101.102 13.2292 101.102 12.8594V12.6953C101.102 12.3307 101.065 11.9896 100.992 11.6719C100.919 11.349 100.805 11.0651 100.648 10.8203C100.497 10.5703 100.299 10.375 100.055 10.2344C99.8151 10.0885 99.526 10.0156 99.1875 10.0156C98.8542 10.0156 98.5677 10.0885 98.3281 10.2344C98.0885 10.375 97.8932 10.5703 97.7422 10.8203C97.5911 11.0651 97.4792 11.349 97.4062 11.6719C97.3333 11.9896 97.2969 12.3307 97.2969 12.6953ZM106.727 10.2734V17H104.664V8.54688H106.617L106.727 10.2734ZM109.297 8.49219L109.266 10.4141C109.151 10.3932 109.021 10.3776 108.875 10.3672C108.734 10.3568 108.602 10.3516 108.477 10.3516C108.159 10.3516 107.88 10.3958 107.641 10.4844C107.401 10.5677 107.201 10.6901 107.039 10.8516C106.883 11.013 106.763 11.2109 106.68 11.4453C106.596 11.6745 106.549 11.9349 106.539 12.2266L106.094 12.1719C106.094 11.6354 106.148 11.138 106.258 10.6797C106.367 10.2214 106.526 9.82031 106.734 9.47656C106.943 9.13281 107.203 8.86719 107.516 8.67969C107.833 8.48698 108.198 8.39062 108.609 8.39062C108.724 8.39062 108.846 8.40104 108.977 8.42188C109.112 8.4375 109.219 8.46094 109.297 8.49219ZM112.484 10.2812V17H110.422V8.54688H112.367L112.484 10.2812ZM112.18 12.4688H111.547C111.547 11.8802 111.617 11.3385 111.758 10.8438C111.904 10.349 112.117 9.91927 112.398 9.55469C112.68 9.1849 113.026 8.89844 113.438 8.69531C113.854 8.49219 114.336 8.39062 114.883 8.39062C115.263 8.39062 115.612 8.44792 115.93 8.5625C116.247 8.67188 116.521 8.84635 116.75 9.08594C116.984 9.32031 117.164 9.6276 117.289 10.0078C117.414 10.3828 117.477 10.8333 117.477 11.3594V17H115.414V11.5703C115.414 11.1745 115.357 10.8646 115.242 10.6406C115.133 10.4167 114.974 10.2604 114.766 10.1719C114.557 10.0781 114.307 10.0312 114.016 10.0312C113.693 10.0312 113.414 10.0964 113.18 10.2266C112.951 10.3516 112.76 10.526 112.609 10.75C112.464 10.974 112.354 11.2318 112.281 11.5234C112.214 11.8151 112.18 12.1302 112.18 12.4688ZM117.32 12.0859L116.469 12.2422C116.474 11.7109 116.547 11.2135 116.688 10.75C116.828 10.2812 117.034 9.8724 117.305 9.52344C117.581 9.16927 117.922 8.89323 118.328 8.69531C118.74 8.49219 119.214 8.39062 119.75 8.39062C120.167 8.39062 120.542 8.45052 120.875 8.57031C121.214 8.6849 121.503 8.86979 121.742 9.125C121.982 9.375 122.164 9.70052 122.289 10.1016C122.419 10.5026 122.484 10.9922 122.484 11.5703V17H120.406V11.5625C120.406 11.151 120.349 10.8359 120.234 10.6172C120.125 10.3984 119.966 10.2474 119.758 10.1641C119.549 10.0755 119.305 10.0312 119.023 10.0312C118.737 10.0312 118.487 10.0859 118.273 10.1953C118.065 10.2995 117.888 10.4453 117.742 10.6328C117.602 10.8203 117.495 11.0391 117.422 11.2891C117.354 11.5339 117.32 11.7995 117.32 12.0859ZM128.992 15.2031V11.3047C128.992 11.0182 128.943 10.7708 128.844 10.5625C128.745 10.3542 128.594 10.1927 128.391 10.0781C128.188 9.96354 127.93 9.90625 127.617 9.90625C127.341 9.90625 127.099 9.95312 126.891 10.0469C126.688 10.1406 126.531 10.2734 126.422 10.4453C126.312 10.612 126.258 10.8047 126.258 11.0234H124.188C124.188 10.6745 124.271 10.3438 124.438 10.0312C124.604 9.71354 124.841 9.43229 125.148 9.1875C125.461 8.9375 125.833 8.74219 126.266 8.60156C126.703 8.46094 127.193 8.39062 127.734 8.39062C128.375 8.39062 128.945 8.5 129.445 8.71875C129.951 8.93229 130.346 9.25521 130.633 9.6875C130.924 10.1198 131.07 10.6641 131.07 11.3203V15.0078C131.07 15.4297 131.096 15.7917 131.148 16.0938C131.206 16.3906 131.289 16.6484 131.398 16.8672V17H129.297C129.198 16.7865 129.122 16.5156 129.07 16.1875C129.018 15.8542 128.992 15.526 128.992 15.2031ZM129.281 11.8516L129.297 13.0781H127.992C127.669 13.0781 127.385 13.112 127.141 13.1797C126.896 13.2422 126.695 13.3359 126.539 13.4609C126.383 13.5807 126.266 13.7266 126.188 13.8984C126.109 14.0651 126.07 14.2552 126.07 14.4688C126.07 14.6771 126.117 14.8646 126.211 15.0312C126.31 15.1979 126.451 15.3307 126.633 15.4297C126.82 15.5234 127.039 15.5703 127.289 15.5703C127.654 15.5703 127.971 15.4974 128.242 15.3516C128.513 15.2005 128.724 15.0182 128.875 14.8047C129.026 14.5911 129.107 14.388 129.117 14.1953L129.711 15.0859C129.638 15.2995 129.529 15.526 129.383 15.7656C129.237 16.0052 129.049 16.2292 128.82 16.4375C128.591 16.6458 128.315 16.8177 127.992 16.9531C127.669 17.0885 127.294 17.1562 126.867 17.1562C126.32 17.1562 125.831 17.0469 125.398 16.8281C124.966 16.6094 124.625 16.3099 124.375 15.9297C124.125 15.5495 124 15.1172 124 14.6328C124 14.1849 124.083 13.7891 124.25 13.4453C124.417 13.1016 124.664 12.8125 124.992 12.5781C125.32 12.3385 125.727 12.1589 126.211 12.0391C126.701 11.9141 127.26 11.8516 127.891 11.8516H129.281ZM141.984 15.2031V5H144.062V17H142.188L141.984 15.2031ZM136.555 12.875V12.7109C136.555 12.0651 136.628 11.4792 136.773 10.9531C136.924 10.4219 137.143 9.96615 137.43 9.58594C137.716 9.20573 138.062 8.91146 138.469 8.70312C138.88 8.49479 139.346 8.39062 139.867 8.39062C140.372 8.39062 140.812 8.49219 141.188 8.69531C141.568 8.89844 141.891 9.1875 142.156 9.5625C142.427 9.9375 142.643 10.3828 142.805 10.8984C142.966 11.4089 143.083 11.9714 143.156 12.5859V13.0312C143.083 13.6302 142.966 14.1797 142.805 14.6797C142.643 15.1797 142.427 15.6172 142.156 15.9922C141.891 16.362 141.568 16.6484 141.188 16.8516C140.807 17.0547 140.362 17.1562 139.852 17.1562C139.336 17.1562 138.872 17.0495 138.461 16.8359C138.055 16.6224 137.708 16.3229 137.422 15.9375C137.141 15.5521 136.924 15.099 136.773 14.5781C136.628 14.0573 136.555 13.4896 136.555 12.875ZM138.625 12.7109V12.875C138.625 13.2396 138.656 13.5807 138.719 13.8984C138.781 14.2161 138.883 14.4974 139.023 14.7422C139.164 14.9818 139.344 15.1693 139.562 15.3047C139.786 15.4401 140.057 15.5078 140.375 15.5078C140.781 15.5078 141.115 15.4193 141.375 15.2422C141.641 15.0599 141.846 14.8125 141.992 14.5C142.138 14.1823 142.232 13.8255 142.273 13.4297V12.2031C142.253 11.8906 142.198 11.6016 142.109 11.3359C142.026 11.0703 141.906 10.8411 141.75 10.6484C141.599 10.4557 141.411 10.3047 141.188 10.1953C140.964 10.0859 140.698 10.0312 140.391 10.0312C140.073 10.0312 139.802 10.1016 139.578 10.2422C139.354 10.3776 139.172 10.5677 139.031 10.8125C138.891 11.0573 138.786 11.3411 138.719 11.6641C138.656 11.987 138.625 12.3359 138.625 12.7109ZM149.727 17.1562C149.086 17.1562 148.51 17.0521 148 16.8438C147.49 16.6354 147.055 16.3464 146.695 15.9766C146.341 15.6016 146.068 15.1667 145.875 14.6719C145.688 14.1719 145.594 13.6354 145.594 13.0625V12.75C145.594 12.099 145.688 11.5078 145.875 10.9766C146.062 10.4401 146.328 9.97917 146.672 9.59375C147.016 9.20833 147.427 8.91146 147.906 8.70312C148.385 8.49479 148.914 8.39062 149.492 8.39062C150.091 8.39062 150.62 8.49219 151.078 8.69531C151.536 8.89323 151.919 9.17448 152.227 9.53906C152.534 9.90365 152.766 10.3411 152.922 10.8516C153.078 11.3568 153.156 11.9167 153.156 12.5312V13.3984H146.531V11.9766H151.125V11.8203C151.115 11.4922 151.052 11.1927 150.938 10.9219C150.823 10.6458 150.646 10.4271 150.406 10.2656C150.167 10.099 149.857 10.0156 149.477 10.0156C149.169 10.0156 148.901 10.0833 148.672 10.2188C148.448 10.349 148.26 10.5365 148.109 10.7812C147.964 11.0208 147.854 11.3073 147.781 11.6406C147.708 11.974 147.672 12.3438 147.672 12.75V13.0625C147.672 13.4167 147.719 13.7448 147.812 14.0469C147.911 14.349 148.055 14.612 148.242 14.8359C148.435 15.0547 148.664 15.2266 148.93 15.3516C149.201 15.4714 149.508 15.5312 149.852 15.5312C150.284 15.5312 150.674 15.4479 151.023 15.2812C151.378 15.1094 151.685 14.8568 151.945 14.5234L152.984 15.6016C152.807 15.862 152.568 16.112 152.266 16.3516C151.969 16.5911 151.609 16.7865 151.188 16.9375C150.766 17.0833 150.279 17.1562 149.727 17.1562ZM165.336 13.2578H167.484C167.427 14.0182 167.216 14.6927 166.852 15.2812C166.487 15.8646 165.979 16.3229 165.328 16.6562C164.677 16.9896 163.888 17.1562 162.961 17.1562C162.247 17.1562 161.604 17.0312 161.031 16.7812C160.464 16.526 159.977 16.1641 159.57 15.6953C159.169 15.2214 158.862 14.6536 158.648 13.9922C158.435 13.3255 158.328 12.5781 158.328 11.75V10.8828C158.328 10.0547 158.438 9.30729 158.656 8.64062C158.875 7.97396 159.188 7.40625 159.594 6.9375C160.005 6.46354 160.497 6.09896 161.07 5.84375C161.648 5.58854 162.294 5.46094 163.008 5.46094C163.935 5.46094 164.719 5.63281 165.359 5.97656C166 6.3151 166.497 6.78125 166.852 7.375C167.206 7.96875 167.419 8.65104 167.492 9.42188H165.344C165.302 8.94271 165.198 8.53646 165.031 8.20312C164.87 7.86979 164.625 7.61719 164.297 7.44531C163.974 7.26823 163.544 7.17969 163.008 7.17969C162.591 7.17969 162.224 7.25781 161.906 7.41406C161.594 7.57031 161.333 7.80469 161.125 8.11719C160.917 8.42448 160.76 8.8099 160.656 9.27344C160.552 9.73177 160.5 10.263 160.5 10.8672V11.75C160.5 12.3281 160.547 12.8464 160.641 13.3047C160.734 13.763 160.88 14.151 161.078 14.4688C161.276 14.7865 161.531 15.0286 161.844 15.1953C162.156 15.362 162.529 15.4453 162.961 15.4453C163.487 15.4453 163.914 15.362 164.242 15.1953C164.576 15.0286 164.828 14.7839 165 14.4609C165.177 14.138 165.289 13.737 165.336 13.2578ZM174.023 14.9922V8.54688H176.102V17H174.148L174.023 14.9922ZM174.289 13.2422L174.93 13.2266C174.93 13.7943 174.867 14.3177 174.742 14.7969C174.617 15.276 174.422 15.6927 174.156 16.0469C173.896 16.3958 173.565 16.6693 173.164 16.8672C172.763 17.0599 172.289 17.1562 171.742 17.1562C171.326 17.1562 170.945 17.099 170.602 16.9844C170.258 16.8646 169.961 16.6797 169.711 16.4297C169.466 16.1745 169.276 15.849 169.141 15.4531C169.005 15.0521 168.938 14.5703 168.938 14.0078V8.54688H171V14.0234C171 14.3047 171.031 14.5391 171.094 14.7266C171.161 14.9141 171.253 15.0677 171.367 15.1875C171.487 15.3021 171.625 15.3854 171.781 15.4375C171.943 15.4844 172.115 15.5078 172.297 15.5078C172.797 15.5078 173.19 15.4089 173.477 15.2109C173.768 15.0078 173.977 14.737 174.102 14.3984C174.227 14.0547 174.289 13.6693 174.289 13.2422ZM179.992 10.2734V17H177.93V8.54688H179.883L179.992 10.2734ZM182.562 8.49219L182.531 10.4141C182.417 10.3932 182.286 10.3776 182.141 10.3672C182 10.3568 181.867 10.3516 181.742 10.3516C181.424 10.3516 181.146 10.3958 180.906 10.4844C180.667 10.5677 180.466 10.6901 180.305 10.8516C180.148 11.013 180.029 11.2109 179.945 11.4453C179.862 11.6745 179.815 11.9349 179.805 12.2266L179.359 12.1719C179.359 11.6354 179.414 11.138 179.523 10.6797C179.633 10.2214 179.792 9.82031 180 9.47656C180.208 9.13281 180.469 8.86719 180.781 8.67969C181.099 8.48698 181.464 8.39062 181.875 8.39062C181.99 8.39062 182.112 8.40104 182.242 8.42188C182.378 8.4375 182.484 8.46094 182.562 8.49219ZM188.344 14.6875C188.344 14.5104 188.297 14.3516 188.203 14.2109C188.109 14.0703 187.932 13.9427 187.672 13.8281C187.417 13.7083 187.042 13.5964 186.547 13.4922C186.109 13.3984 185.706 13.2812 185.336 13.1406C184.966 13 184.648 12.8307 184.383 12.6328C184.117 12.4297 183.909 12.1927 183.758 11.9219C183.612 11.6458 183.539 11.3281 183.539 10.9688C183.539 10.6198 183.615 10.2917 183.766 9.98438C183.917 9.67188 184.135 9.39844 184.422 9.16406C184.708 8.92448 185.057 8.73698 185.469 8.60156C185.88 8.46094 186.344 8.39062 186.859 8.39062C187.578 8.39062 188.195 8.50781 188.711 8.74219C189.232 8.97656 189.63 9.29948 189.906 9.71094C190.182 10.1172 190.32 10.5755 190.32 11.0859H188.258C188.258 10.862 188.206 10.6589 188.102 10.4766C188.003 10.2943 187.849 10.1484 187.641 10.0391C187.432 9.92448 187.169 9.86719 186.852 9.86719C186.565 9.86719 186.323 9.91406 186.125 10.0078C185.932 10.1016 185.786 10.224 185.688 10.375C185.589 10.526 185.539 10.6927 185.539 10.875C185.539 11.0104 185.565 11.1328 185.617 11.2422C185.674 11.3464 185.766 11.4427 185.891 11.5312C186.016 11.6198 186.185 11.7005 186.398 11.7734C186.617 11.8464 186.885 11.9167 187.203 11.9844C187.833 12.1094 188.383 12.276 188.852 12.4844C189.326 12.6875 189.695 12.9583 189.961 13.2969C190.227 13.6354 190.359 14.0677 190.359 14.5938C190.359 14.9688 190.279 15.3125 190.117 15.625C189.956 15.9323 189.721 16.2005 189.414 16.4297C189.107 16.6589 188.74 16.8385 188.312 16.9688C187.885 17.0938 187.404 17.1562 186.867 17.1562C186.091 17.1562 185.435 17.0182 184.898 16.7422C184.362 16.4609 183.956 16.1068 183.68 15.6797C183.404 15.2474 183.266 14.7995 183.266 14.3359H185.242C185.258 14.6641 185.346 14.9271 185.508 15.125C185.669 15.3229 185.872 15.4661 186.117 15.5547C186.367 15.638 186.63 15.6797 186.906 15.6797C187.219 15.6797 187.482 15.638 187.695 15.5547C187.909 15.4661 188.07 15.349 188.18 15.2031C188.289 15.0521 188.344 14.8802 188.344 14.6875ZM191.562 12.8594V12.6953C191.562 12.0755 191.651 11.5052 191.828 10.9844C192.005 10.4583 192.263 10.0026 192.602 9.61719C192.94 9.23177 193.354 8.93229 193.844 8.71875C194.333 8.5 194.891 8.39062 195.516 8.39062C196.151 8.39062 196.714 8.5 197.203 8.71875C197.698 8.93229 198.115 9.23177 198.453 9.61719C198.792 10.0026 199.049 10.4583 199.227 10.9844C199.404 11.5052 199.492 12.0755 199.492 12.6953V12.8594C199.492 13.474 199.404 14.0443 199.227 14.5703C199.049 15.0911 198.792 15.5469 198.453 15.9375C198.115 16.3229 197.701 16.6224 197.211 16.8359C196.721 17.0495 196.161 17.1562 195.531 17.1562C194.906 17.1562 194.346 17.0495 193.852 16.8359C193.357 16.6224 192.94 16.3229 192.602 15.9375C192.263 15.5469 192.005 15.0911 191.828 14.5703C191.651 14.0443 191.562 13.474 191.562 12.8594ZM193.625 12.6953V12.8594C193.625 13.2292 193.661 13.5755 193.734 13.8984C193.807 14.2214 193.919 14.5052 194.07 14.75C194.221 14.9948 194.417 15.1875 194.656 15.3281C194.901 15.4635 195.193 15.5312 195.531 15.5312C195.865 15.5312 196.151 15.4635 196.391 15.3281C196.63 15.1875 196.826 14.9948 196.977 14.75C197.133 14.5052 197.247 14.2214 197.32 13.8984C197.393 13.5755 197.43 13.2292 197.43 12.8594V12.6953C197.43 12.3307 197.393 11.9896 197.32 11.6719C197.247 11.349 197.133 11.0651 196.977 10.8203C196.826 10.5703 196.628 10.375 196.383 10.2344C196.143 10.0885 195.854 10.0156 195.516 10.0156C195.182 10.0156 194.896 10.0885 194.656 10.2344C194.417 10.375 194.221 10.5703 194.07 10.8203C193.919 11.0651 193.807 11.349 193.734 11.6719C193.661 11.9896 193.625 12.3307 193.625 12.6953ZM62.2969 30.0234V30.6094C62.2969 31.4688 62.1823 32.2422 61.9531 32.9297C61.724 33.612 61.3984 34.1927 60.9766 34.6719C60.5547 35.151 60.0521 35.5182 59.4688 35.7734C58.8854 36.0286 58.237 36.1562 57.5234 36.1562C56.8203 36.1562 56.1745 36.0286 55.5859 35.7734C55.0026 35.5182 54.4974 35.151 54.0703 34.6719C53.6432 34.1927 53.3125 33.612 53.0781 32.9297C52.8438 32.2422 52.7266 31.4688 52.7266 30.6094V30.0234C52.7266 29.1589 52.8438 28.3854 53.0781 27.7031C53.3125 27.0208 53.6406 26.4401 54.0625 25.9609C54.4844 25.4766 54.987 25.1068 55.5703 24.8516C56.1589 24.5964 56.8047 24.4688 57.5078 24.4688C58.2214 24.4688 58.8698 24.5964 59.4531 24.8516C60.0365 25.1068 60.5391 25.4766 60.9609 25.9609C61.388 26.4401 61.7161 27.0208 61.9453 27.7031C62.1797 28.3854 62.2969 29.1589 62.2969 30.0234ZM60.125 30.6094V30.0078C60.125 29.388 60.0677 28.8438 59.9531 28.375C59.8385 27.901 59.6693 27.5026 59.4453 27.1797C59.2214 26.8568 58.9453 26.6146 58.6172 26.4531C58.2891 26.2865 57.9193 26.2031 57.5078 26.2031C57.0911 26.2031 56.7214 26.2865 56.3984 26.4531C56.0807 26.6146 55.8099 26.8568 55.5859 27.1797C55.362 27.5026 55.1901 27.901 55.0703 28.375C54.9557 28.8438 54.8984 29.388 54.8984 30.0078V30.6094C54.8984 31.224 54.9557 31.7682 55.0703 32.2422C55.1901 32.7161 55.362 33.1172 55.5859 33.4453C55.8151 33.7682 56.0911 34.013 56.4141 34.1797C56.737 34.3464 57.1068 34.4297 57.5234 34.4297C57.9401 34.4297 58.3099 34.3464 58.6328 34.1797C58.9557 34.013 59.2266 33.7682 59.4453 33.4453C59.6693 33.1172 59.8385 32.7161 59.9531 32.2422C60.0677 31.7682 60.125 31.224 60.125 30.6094ZM65.9844 29.3516V36H63.9219V27.5469H65.8594L65.9844 29.3516ZM65.6562 31.4688H65.0469C65.0521 30.8542 65.1354 30.2969 65.2969 29.7969C65.4583 29.2969 65.6849 28.8672 65.9766 28.5078C66.2734 28.1484 66.625 27.8724 67.0312 27.6797C67.4375 27.487 67.8906 27.3906 68.3906 27.3906C68.7969 27.3906 69.1641 27.4479 69.4922 27.5625C69.8203 27.6771 70.1016 27.8594 70.3359 28.1094C70.5755 28.3594 70.7578 28.6875 70.8828 29.0938C71.013 29.4948 71.0781 29.9896 71.0781 30.5781V36H69V30.5625C69 30.1771 68.9427 29.8724 68.8281 29.6484C68.7188 29.4245 68.5573 29.2656 68.3438 29.1719C68.1354 29.0781 67.8776 29.0312 67.5703 29.0312C67.2526 29.0312 66.974 29.0964 66.7344 29.2266C66.5 29.3516 66.3021 29.526 66.1406 29.75C65.9844 29.974 65.8646 30.2318 65.7812 30.5234C65.6979 30.8151 65.6562 31.1302 65.6562 31.4688ZM75.0859 24V36H73.0156V24H75.0859ZM79.2422 27.5469V36H77.1719V27.5469H79.2422ZM77.0312 25.3359C77.0312 25.0286 77.1354 24.7734 77.3438 24.5703C77.5573 24.3672 77.8438 24.2656 78.2031 24.2656C78.5625 24.2656 78.8464 24.3672 79.0547 24.5703C79.2682 24.7734 79.375 25.0286 79.375 25.3359C79.375 25.638 79.2682 25.8906 79.0547 26.0938C78.8464 26.2969 78.5625 26.3984 78.2031 26.3984C77.8438 26.3984 77.5573 26.2969 77.3438 26.0938C77.1354 25.8906 77.0312 25.638 77.0312 25.3359ZM83.2344 29.3516V36H81.1719V27.5469H83.1094L83.2344 29.3516ZM82.9062 31.4688H82.2969C82.3021 30.8542 82.3854 30.2969 82.5469 29.7969C82.7083 29.2969 82.9349 28.8672 83.2266 28.5078C83.5234 28.1484 83.875 27.8724 84.2812 27.6797C84.6875 27.487 85.1406 27.3906 85.6406 27.3906C86.0469 27.3906 86.4141 27.4479 86.7422 27.5625C87.0703 27.6771 87.3516 27.8594 87.5859 28.1094C87.8255 28.3594 88.0078 28.6875 88.1328 29.0938C88.263 29.4948 88.3281 29.9896 88.3281 30.5781V36H86.25V30.5625C86.25 30.1771 86.1927 29.8724 86.0781 29.6484C85.9688 29.4245 85.8073 29.2656 85.5938 29.1719C85.3854 29.0781 85.1276 29.0312 84.8203 29.0312C84.5026 29.0312 84.224 29.0964 83.9844 29.2266C83.75 29.3516 83.5521 29.526 83.3906 29.75C83.2344 29.974 83.1146 30.2318 83.0312 30.5234C82.9479 30.8151 82.9062 31.1302 82.9062 31.4688ZM93.9453 36.1562C93.3047 36.1562 92.7292 36.0521 92.2188 35.8438C91.7083 35.6354 91.2734 35.3464 90.9141 34.9766C90.5599 34.6016 90.2865 34.1667 90.0938 33.6719C89.9062 33.1719 89.8125 32.6354 89.8125 32.0625V31.75C89.8125 31.099 89.9062 30.5078 90.0938 29.9766C90.2812 29.4401 90.5469 28.9792 90.8906 28.5938C91.2344 28.2083 91.6458 27.9115 92.125 27.7031C92.6042 27.4948 93.1328 27.3906 93.7109 27.3906C94.3099 27.3906 94.8385 27.4922 95.2969 27.6953C95.7552 27.8932 96.138 28.1745 96.4453 28.5391C96.7526 28.9036 96.9844 29.3411 97.1406 29.8516C97.2969 30.3568 97.375 30.9167 97.375 31.5312V32.3984H90.75V30.9766H95.3438V30.8203C95.3333 30.4922 95.2708 30.1927 95.1562 29.9219C95.0417 29.6458 94.8646 29.4271 94.625 29.2656C94.3854 29.099 94.0755 29.0156 93.6953 29.0156C93.388 29.0156 93.1198 29.0833 92.8906 29.2188C92.6667 29.349 92.4792 29.5365 92.3281 29.7812C92.1823 30.0208 92.0729 30.3073 92 30.6406C91.9271 30.974 91.8906 31.3438 91.8906 31.75V32.0625C91.8906 32.4167 91.9375 32.7448 92.0312 33.0469C92.1302 33.349 92.2734 33.612 92.4609 33.8359C92.6536 34.0547 92.8828 34.2266 93.1484 34.3516C93.4193 34.4714 93.7266 34.5312 94.0703 34.5312C94.5026 34.5312 94.8932 34.4479 95.2422 34.2812C95.5964 34.1094 95.9036 33.8568 96.1641 33.5234L97.2031 34.6016C97.026 34.862 96.7865 35.112 96.4844 35.3516C96.1875 35.5911 95.8281 35.7865 95.4062 35.9375C94.9844 36.0833 94.4974 36.1562 93.9453 36.1562Z" fill="#4F4D4D"/>
</svg>
