<svg width="384" height="152" viewBox="0 0 384 152" fill="none" xmlns="http://www.w3.org/2000/svg">
<path d="M93.4844 89.5156V105.766H11.5312L10.6719 93.2656L58.875 17.25H75.3594L57.5469 47.4844L31.6875 89.5156H93.4844ZM79.9688 17.25V131H59.2656V17.25H79.9688Z" fill="white"/>
<path d="M358.484 89.5156V105.766H276.531L275.672 93.2656L323.875 17.25H340.359L322.547 47.4844L296.688 89.5156H358.484ZM344.969 17.25V131H324.266V17.25H344.969Z" fill="white"/>
<path d="M190.794 23.4583C205.034 23.4583 218.692 29.1234 228.761 39.2074C238.831 49.2914 244.488 62.9682 244.488 77.2291C244.488 91.4901 238.831 105.167 228.761 115.251C218.692 125.335 205.034 131 190.794 131C176.553 131 162.896 125.335 152.826 115.251C142.757 105.167 137.1 91.4901 137.1 77.2291C137.1 62.9682 142.757 49.2914 152.826 39.2074C162.896 29.1234 176.553 23.4583 190.794 23.4583ZM147.167 77.2291C147.167 88.8161 151.764 99.9286 159.945 108.122C168.127 116.315 179.223 120.918 190.794 120.918C202.364 120.918 213.461 116.315 221.642 108.122C229.824 99.9286 234.42 88.8161 234.42 77.2291C234.42 65.6422 229.824 54.5297 221.642 46.3365C213.461 38.1433 202.364 33.5403 190.794 33.5403C179.223 33.5403 168.127 38.1433 159.945 46.3365C151.764 54.5297 147.167 65.6422 147.167 77.2291ZM179.914 58.5908L208.533 75.7908C208.78 75.9404 208.985 76.1514 209.127 76.4034C209.269 76.6554 209.344 76.9398 209.344 77.2291C209.344 77.5185 209.269 77.8029 209.127 78.0549C208.985 78.3069 208.78 78.5179 208.533 78.6675L179.914 95.8675C179.66 96.021 179.369 96.1041 179.072 96.1083C178.775 96.1125 178.482 96.0376 178.223 95.8913C177.964 95.745 177.749 95.5326 177.599 95.2757C177.449 95.0188 177.37 94.7266 177.37 94.4291V60.0359C177.369 59.7378 177.447 59.4448 177.597 59.187C177.746 58.9291 177.961 58.7157 178.22 58.5686C178.479 58.4216 178.773 58.3461 179.07 58.35C179.368 58.3539 179.659 58.437 179.914 58.5908Z" fill="#FF5F05"/>
<line y1="-6" x2="100" y2="-6" transform="matrix(-0.792447 0.60994 -0.608848 -0.793287 225.245 41)" stroke="#FF5F05" stroke-width="12"/>
</svg>
