<svg width="150" height="138" viewBox="0 0 150 138" fill="none" xmlns="http://www.w3.org/2000/svg">
<path d="M21.4286 0H135.714C137.609 0 139.426 0.632141 140.765 1.75736C142.105 2.88258 142.857 4.4087 142.857 6V30C142.857 31.5913 142.105 33.1174 140.765 34.2426C139.426 35.3679 137.609 36 135.714 36H55.8571L41.5714 24H42.8571V12H28.5714V13.08L15.7857 2.34C17.0714 0.9 19.1429 0 21.4286 0ZM150 130.32L140.929 138L133.786 132H21.4286C19.5342 132 17.7174 131.368 16.3778 130.243C15.0383 129.117 14.2857 127.591 14.2857 126V102C14.2857 100.409 15.0383 98.8826 16.3778 97.7574C17.7174 96.6321 19.5342 96 21.4286 96H90.9286L76.6429 84H21.4286C19.5342 84 17.7174 83.3679 16.3778 82.2426C15.0383 81.1174 14.2857 79.5913 14.2857 78V54C14.2857 52.4087 15.0383 50.8826 16.3778 49.7574C17.7174 48.6321 19.5342 48 21.4286 48H33.7857L19.1429 35.7C17 35.1 15.3571 33.72 14.6429 31.92L0 19.62L9.14286 12L150 130.32ZM135.714 48C137.609 48 139.426 48.6321 140.765 49.7574C142.105 50.8826 142.857 52.4087 142.857 54V78C142.857 79.5913 142.105 81.1174 140.765 82.2426C139.426 83.3679 137.609 84 135.714 84H113L70.1429 48H135.714ZM135.714 96C137.609 96 139.426 96.6321 140.765 97.7574C142.105 98.8826 142.857 100.409 142.857 102V109.08L127.286 96H135.714ZM57.1429 24H64.2857V12H57.1429V24ZM57.1429 72H62.3571L57.1429 67.62V72ZM57.1429 120H64.2857V108H57.1429V120ZM28.5714 60V72H42.8571V60H28.5714ZM28.5714 108V120H42.8571V108H28.5714Z" fill="#FF5F05"/>
</svg>
